<svg width="50" height="50" viewBox="0 0 50 50" fill="none" xmlns="http://www.w3.org/2000/svg">
<path d="M18.0556 3.47223C18.5615 3.47223 19.0359 3.6075 19.4444 3.84385C19.853 3.6075 20.3274 3.47223 20.8333 3.47223H28.4722C28.9782 3.47223 29.4525 3.6075 29.8611 3.84385C30.2697 3.6075 30.7441 3.47223 31.25 3.47223H38.1944C39.7286 3.47223 40.9722 4.71588 40.9722 6.25001V12.5C40.9722 13.3743 40.5606 14.1976 39.8611 14.7222L35.5749 17.9369L36.7886 28.8599C37.1099 31.7518 38.4559 33.219 40.4167 35.8333C40.7773 36.3142 40.9722 36.899 40.9722 37.5V43.0556C40.9722 44.5897 39.7286 45.8333 38.1944 45.8333H11.1111C9.57699 45.8333 8.33334 44.5897 8.33334 43.0556V37.5C8.33334 36.899 8.52827 36.3142 8.88889 35.8333C10.8497 33.219 12.1957 31.7518 12.517 28.8599L13.7307 17.9369L9.44445 14.7222C8.74499 14.1976 8.33334 13.3743 8.33334 12.5V6.25001C8.33334 4.71588 9.57699 3.47223 11.1111 3.47223H18.0556Z" fill="#F4F7FA"/>
<path d="M11.1111 6.25H18.0556V10.4167H20.8333V6.25H28.4722V10.4167H31.25V6.25H38.1944V12.5L32.6389 16.6667L34.0278 29.1667H15.2778L16.6667 16.6667L11.1111 12.5V6.25Z" fill="#34364C"/>
<path d="M15.2778 31.9444H34.0278L38.1944 37.5V43.0556H11.1111V37.5L15.2778 31.9444Z" fill="#34364C"/>
</svg>
