<svg width="50" height="50" viewBox="0 0 50 50" fill="none" xmlns="http://www.w3.org/2000/svg">
<path d="M16.0469 28.5604C15.7155 29.0128 15.32 29.484 14.8591 29.9686C13.2323 31.6791 11.2372 33.0863 9.94955 33.8221L9.73293 33.9459C8.86745 34.4405 8.33333 35.3609 8.33333 36.3577V43.0556C8.33333 44.5897 9.57698 45.8334 11.1111 45.8334H38.1944C39.7286 45.8334 40.9722 44.5897 40.9722 43.0556V36.3577C40.9722 35.3609 40.4381 34.4405 39.5726 33.9459L39.356 33.8221C38.0684 33.0863 36.0732 31.6791 34.4465 29.9686C33.9855 29.484 33.5901 29.0128 33.2587 28.5604C34.4778 28.2668 35.3836 27.1691 35.3836 25.8598V21.3381C35.3836 20.4356 34.9451 19.5893 34.2077 19.0688L33.0279 18.236C33.7087 16.9133 34.0939 15.4124 34.0939 13.8228C34.0939 8.48986 29.7707 4.16669 24.4378 4.16669C19.1049 4.16669 14.7817 8.48986 14.7817 13.8228C14.7817 15.5018 15.2114 17.0814 15.9649 18.4567L15.0978 19.0688C14.3605 19.5893 13.922 20.4356 13.922 21.3381V25.8598C13.922 27.1691 14.8277 28.2668 16.0469 28.5604Z" fill="#F4F7FA"/>
<path d="M31.3161 13.8228C31.3161 15.8177 30.4669 17.6142 29.1102 18.8706L32.6058 21.3381V25.8598H29.1837C29.3488 27.9557 30.6935 30.0533 32.4337 31.883C34.2804 33.8247 36.5023 35.3907 37.9778 36.2339L38.1944 36.3577V43.0556H11.1111V36.3577L11.3277 36.2339C12.8033 35.3907 15.0251 33.8247 16.8719 31.883C18.612 30.0533 19.9568 27.9557 20.1218 25.8598H16.6997V21.3381L19.9553 19.04C18.4885 17.7786 17.5595 15.9092 17.5595 13.8228C17.5595 10.024 20.6391 6.94446 24.4378 6.94446C28.2366 6.94446 31.3161 10.024 31.3161 13.8228Z" fill="#34364C"/>
</svg>
