<svg width="50" height="50" viewBox="0 0 50 50" fill="none" xmlns="http://www.w3.org/2000/svg">
<path d="M20.618 0.35208C21.5323 0.249265 22.4382 0.605895 23.0371 1.30442L28.7045 7.91447C35.2128 9.52279 38.9837 14.4235 41.0693 20.5414C43.2184 26.8455 43.75 34.8486 43.75 43.0556C43.75 44.5897 42.5063 45.8333 40.9722 45.8333H15.0729C13.5982 45.8333 12.3805 44.681 12.2993 43.2085C12.2268 41.8945 12.5292 39.6145 13.4504 37.2857L13.4673 37.2431C10.8512 38.6474 7.94779 38.311 5.79245 36.7764C3.1731 34.9115 1.71668 31.2607 3.38066 27.6554C4.58058 25.0556 5.87383 23.6789 6.85217 22.6377C7.76602 21.6651 8.14685 21.2373 8.41627 20.1596C10.0498 13.6256 13.4104 9.86161 17.0193 8.14382C16.9671 7.39945 17.0096 6.6823 17.1009 6.03119C17.3282 4.41049 17.894 2.91279 18.4707 1.8179C18.8995 1.00381 19.7036 0.454896 20.618 0.35208Z" fill="#F4F7FA"/>
<path fill-rule="evenodd" clip-rule="evenodd" d="M27.2019 10.4295L20.9284 3.11243C20.0202 4.83645 19.1398 7.87923 20.4056 10.0758C19.7913 10.1305 19.2041 10.2344 18.75 10.4167C15.8527 11.5794 12.6736 14.5833 11.1111 20.8333C10.6587 22.6431 9.84436 23.5097 8.87653 24.5398C7.96359 25.5114 6.91404 26.6284 5.90278 28.8194C3.81945 33.3333 9.44189 37.8472 13.5417 33.7474C15.8466 31.4425 17.8614 30.491 19.5529 29.6921C21.9875 28.5422 23.7525 27.7086 24.7495 23.6111C25.2239 25.5224 25.0342 30.0331 20.4804 32.7854C15.9267 35.5377 14.978 41.3353 15.0729 43.0555H40.9722C40.9722 26.7244 38.8101 12.6144 27.2019 10.4295Z" fill="#34364C"/>
<circle cx="19.4444" cy="18.75" r="2.08333" fill="#F4F7FA"/>
</svg>
