<svg width="222" height="252" viewBox="0 0 222 252" fill="none" xmlns="http://www.w3.org/2000/svg">
<rect width="222" height="252" rx="10" fill="#323232" fill-opacity="0.96"/>
<path d="M50.0758 91V78.12H56.7758C57.8291 78.12 58.6891 78.3133 59.3558 78.7C60.0358 79.0867 60.5424 79.6267 60.8758 80.32C61.2091 81 61.3758 81.7933 61.3758 82.7C61.3758 83.5667 61.1558 84.3333 60.7158 85C60.2891 85.6533 59.7158 86.1533 58.9958 86.5C59.1424 86.62 59.2691 86.7667 59.3758 86.94C59.4824 87.1 59.6024 87.3267 59.7358 87.62L61.2158 91H57.2958L55.9358 87.9C55.8291 87.66 55.6958 87.4933 55.5358 87.4C55.3891 87.2933 55.1758 87.24 54.8958 87.24H53.8358V91H50.0758ZM53.8358 84.36H55.8158C56.3624 84.36 56.7824 84.22 57.0758 83.94C57.3824 83.6467 57.5358 83.2333 57.5358 82.7C57.5358 81.5667 57.0024 81 55.9358 81H53.8358V84.36ZM62.7711 91V78.12H72.5311V81H66.5311V83.1H71.7911V86.02H66.5311V88.12H72.5311V91H62.7711ZM77.9481 91.2C77.0815 91.2 76.2615 91.1333 75.4881 91C74.7148 90.8533 74.0548 90.6533 73.5081 90.4V87.3C74.1081 87.58 74.7748 87.8067 75.5081 87.98C76.2415 88.1533 76.9281 88.24 77.5681 88.24C78.2348 88.24 78.7348 88.1867 79.0681 88.08C79.4148 87.96 79.5881 87.7 79.5881 87.3C79.5881 87.02 79.4881 86.8 79.2881 86.64C79.1015 86.48 78.8015 86.3333 78.3881 86.2C77.9881 86.0667 77.4615 85.9 76.8081 85.7C75.9415 85.42 75.2548 85.1133 74.7481 84.78C74.2415 84.4467 73.8748 84.04 73.6481 83.56C73.4348 83.08 73.3281 82.4933 73.3281 81.8C73.3281 80.5333 73.7748 79.5733 74.6681 78.92C75.5748 78.2533 76.9148 77.92 78.6881 77.92C79.3948 77.92 80.1215 77.98 80.8681 78.1C81.6281 78.22 82.2415 78.3533 82.7081 78.5V81.62C82.0815 81.3667 81.4815 81.1867 80.9081 81.08C80.3348 80.9733 79.7948 80.92 79.2881 80.92C78.7015 80.92 78.2015 80.9667 77.7881 81.06C77.3748 81.1533 77.1681 81.3933 77.1681 81.78C77.1681 82.1133 77.3415 82.36 77.6881 82.52C78.0481 82.6667 78.6815 82.86 79.5881 83.1C80.6415 83.38 81.4415 83.72 81.9881 84.12C82.5481 84.52 82.9281 84.9867 83.1281 85.52C83.3281 86.04 83.4281 86.6333 83.4281 87.3C83.4281 88.4733 82.9748 89.42 82.0681 90.14C81.1615 90.8467 79.7881 91.2 77.9481 91.2ZM84.8219 91V78.12H88.5819V91H84.8219ZM97.0283 91.2C94.7349 91.2 92.9883 90.64 91.7883 89.52C90.5883 88.3867 89.9883 86.7733 89.9883 84.68C89.9883 82.52 90.6083 80.8533 91.8483 79.68C93.0883 78.5067 94.9016 77.92 97.2883 77.92C98.0883 77.92 98.8083 77.9667 99.4483 78.06C100.102 78.1533 100.715 78.2933 101.288 78.48V81.7C100.702 81.4733 100.095 81.32 99.4683 81.24C98.8416 81.16 98.2016 81.12 97.5483 81.12C96.3083 81.12 95.3749 81.4 94.7483 81.96C94.1349 82.52 93.8283 83.4267 93.8283 84.68C93.8283 85.8533 94.0949 86.7 94.6283 87.22C95.1749 87.74 95.9749 88 97.0283 88C97.3749 88 97.7016 87.98 98.0083 87.94C98.3149 87.8867 98.6016 87.82 98.8683 87.74V85.86H96.3083V83.54H102.008V90.02C101.515 90.3267 100.855 90.6 100.028 90.84C99.2149 91.08 98.2149 91.2 97.0283 91.2ZM103.416 91V78.12H106.616L111.476 84.94V78.12H115.236V91H112.016L107.176 84.2V91H103.416ZM116.629 91L121.569 78.12H125.549L130.489 91H126.569L125.489 88.26H121.609L120.549 91H116.629ZM122.109 85.56H124.989L123.549 81.78L122.109 85.56ZM133.013 91V80.92H129.393V78.12H140.393V80.92H136.773V91H133.013ZM141.384 91V78.12H145.144V91H141.384ZM153.131 91.2C150.997 91.2 149.364 90.68 148.231 89.64C147.111 88.6 146.551 86.92 146.551 84.6C146.551 83 146.804 81.7133 147.311 80.74C147.817 79.7533 148.557 79.04 149.531 78.6C150.517 78.1467 151.717 77.92 153.131 77.92C154.544 77.92 155.737 78.1467 156.711 78.6C157.697 79.04 158.444 79.7533 158.951 80.74C159.457 81.7133 159.711 83 159.711 84.6C159.711 86.92 159.144 88.6 158.011 89.64C156.877 90.68 155.251 91.2 153.131 91.2ZM153.131 88C154.091 88 154.784 87.7333 155.211 87.2C155.651 86.6533 155.871 85.7867 155.871 84.6C155.871 83.3333 155.651 82.44 155.211 81.92C154.784 81.3867 154.091 81.12 153.131 81.12C152.171 81.12 151.471 81.3867 151.031 81.92C150.604 82.44 150.391 83.3333 150.391 84.6C150.391 85.7867 150.604 86.6533 151.031 87.2C151.471 87.7333 152.171 88 153.131 88ZM161.111 91V78.12H164.311L169.171 84.94V78.12H172.931V91H169.711L164.871 84.2V91H161.111Z" fill="white"/>
<path d="M73.991 103L72.341 95.916H74.079L75.014 100.184L75.982 96.917V95.916H77.434L78.655 100.195L79.634 95.916H81.372L79.733 103H78.094L76.906 98.908L75.63 103H73.991ZM84.2519 103V95.916H86.0229V98.721H88.7949V95.916H90.5659V103H88.7949V100.195H86.0229V103H84.2519ZM93.6655 103V95.916H95.4365V103H93.6655ZM100.174 103V97.28H98.0952V95.916H104.024V97.28H101.945V103H100.174ZM106.799 103V95.916H112.024V97.28H108.57V98.765H111.617V100.151H108.57V101.636H112.024V103H106.799ZM120.622 103L118.972 95.916H120.71L121.645 100.184L122.613 96.917V95.916H124.065L125.286 100.195L126.265 95.916H128.003L126.364 103H124.725L123.537 98.908L122.261 103H120.622ZM130.883 103V95.916H132.654V103H130.883ZM135.753 103V95.916H137.271L140.285 100.151V95.916H142.067V103H140.538L137.524 98.776V103H135.753ZM147.421 103.11C146.952 103.11 146.512 103.073 146.101 103C145.698 102.934 145.349 102.835 145.056 102.703V101.196C145.379 101.335 145.734 101.449 146.123 101.537C146.519 101.625 146.893 101.669 147.245 101.669C147.685 101.669 148.011 101.629 148.224 101.548C148.444 101.467 148.554 101.291 148.554 101.02C148.554 100.837 148.499 100.69 148.389 100.58C148.286 100.47 148.114 100.375 147.872 100.294C147.637 100.206 147.315 100.103 146.904 99.986C146.42 99.8393 146.035 99.678 145.749 99.502C145.463 99.3187 145.258 99.0987 145.133 98.842C145.008 98.5853 144.946 98.27 144.946 97.896C144.946 97.2213 145.188 96.7043 145.672 96.345C146.156 95.9857 146.871 95.806 147.817 95.806C148.228 95.806 148.627 95.839 149.016 95.905C149.405 95.9637 149.72 96.0333 149.962 96.114V97.632C149.647 97.5073 149.328 97.4157 149.005 97.357C148.69 97.2983 148.382 97.269 148.081 97.269C147.685 97.269 147.362 97.3057 147.113 97.379C146.871 97.4523 146.75 97.621 146.75 97.885C146.75 98.039 146.794 98.1637 146.882 98.259C146.97 98.347 147.12 98.4277 147.333 98.501C147.553 98.5743 147.85 98.6623 148.224 98.765C148.803 98.919 149.247 99.106 149.555 99.326C149.863 99.5387 150.076 99.788 150.193 100.074C150.31 100.353 150.369 100.668 150.369 101.02C150.369 101.643 150.127 102.149 149.643 102.538C149.159 102.919 148.418 103.11 147.421 103.11Z" fill="white"/>
<path fill-rule="evenodd" clip-rule="evenodd" d="M106.835 21.691C106.881 20.1914 108.111 19 109.611 19H113.778C115.278 19 116.507 20.1914 116.554 21.691L116.579 22.4722H117.944C119.479 22.4722 120.722 23.7159 120.722 25.25V26.9348C123.75 26.2496 127.018 26.7073 129.792 29.0188C135.555 33.821 135.025 43.8876 128.185 49.3937C126.535 50.7224 125.238 51.824 124.346 52.959C124.142 53.218 123.967 53.4685 123.821 53.7138L126.636 54.0945C128.013 54.2808 129.041 55.457 129.041 56.8472V62.0556C129.041 63.5897 127.798 64.8333 126.263 64.8333H97.1253C95.5912 64.8333 94.3475 63.5897 94.3475 62.0556V56.8472C94.3475 55.457 95.3753 54.2808 96.753 54.0945L99.5682 53.7138C99.4213 53.4685 99.2468 53.218 99.0431 52.959C98.1503 51.824 96.8537 50.7224 95.2033 49.3937C88.3643 43.8876 87.834 33.821 93.5967 29.0188C96.3705 26.7073 99.6387 26.2496 102.667 26.9348V25.25C102.667 23.7159 103.91 22.4722 105.444 22.4722H106.81L106.835 21.691Z" fill="black" fill-opacity="0.21"/>
<path fill-rule="evenodd" clip-rule="evenodd" d="M109.611 21.7778H113.778L113.886 25.2501H117.944V29.4167H114.016L114.207 34.1341C114.283 34.0444 114.362 33.9564 114.443 33.8705C118.237 29.8383 123.862 27.6926 128.014 31.1528C132.181 34.6251 132.181 42.6112 126.444 47.23C123.194 49.8465 120.283 52.3687 120.426 56.0578L126.264 56.8473V62.0556H97.1254V56.8473L102.963 56.0578C103.106 52.3687 100.195 49.8464 96.9453 47.23C91.2083 42.6112 91.2083 34.6251 95.375 31.1528C99.5273 27.6926 105.152 29.8383 108.946 33.8705C109.027 33.9564 109.105 34.0444 109.182 34.1341L109.372 29.4167H105.444V25.2501H109.503L109.611 21.7778ZM105.686 37.7314C108.232 41.9022 108.569 46.7778 108.569 48.8981C107.293 48.9004 102.482 46.7837 99.9345 43.3088C98.1006 40.8072 97.6224 37.0955 99.1944 35.6546C100.767 34.2136 104.095 35.1247 105.686 37.7314ZM117.703 37.7314C115.156 41.9022 114.819 46.7778 114.819 48.8981C116.096 48.9004 120.907 46.7837 123.454 43.3088C125.288 40.8072 125.767 37.0955 124.194 35.6546C122.622 34.2136 119.294 35.1247 117.703 37.7314Z" fill="#F4F7FA"/>
</svg>
