<svg width="222" height="252" viewBox="0 0 222 252" fill="none" xmlns="http://www.w3.org/2000/svg">
<rect width="222" height="252" rx="10" fill="#323232" fill-opacity="0.96"/>
<path d="M67.72 91V80.92H64.1V78.12H75.1V80.92H71.48V91H67.72ZM76.0914 91V78.12H79.8514V91H76.0914ZM81.6578 91V78.12H85.3178L88.5178 84.66L91.6978 78.12H95.3378V91H91.5778V84.56L89.5178 88.8H87.4978L85.4178 84.56V91H81.6578ZM97.1461 91V78.12H106.906V81H100.906V83.1H106.166V86.02H100.906V88.12H106.906V91H97.1461ZM112.205 91V78.12H115.965V88.12H121.765V91H112.205ZM128.756 91.2C126.622 91.2 124.989 90.68 123.856 89.64C122.736 88.6 122.176 86.92 122.176 84.6C122.176 83 122.429 81.7133 122.936 80.74C123.442 79.7533 124.182 79.04 125.156 78.6C126.142 78.1467 127.342 77.92 128.756 77.92C130.169 77.92 131.362 78.1467 132.336 78.6C133.322 79.04 134.069 79.7533 134.576 80.74C135.082 81.7133 135.336 83 135.336 84.6C135.336 86.92 134.769 88.6 133.636 89.64C132.502 90.68 130.876 91.2 128.756 91.2ZM128.756 88C129.716 88 130.409 87.7333 130.836 87.2C131.276 86.6533 131.496 85.7867 131.496 84.6C131.496 83.3333 131.276 82.44 130.836 81.92C130.409 81.3867 129.716 81.12 128.756 81.12C127.796 81.12 127.096 81.3867 126.656 81.92C126.229 82.44 126.016 83.3333 126.016 84.6C126.016 85.7867 126.229 86.6533 126.656 87.2C127.096 87.7333 127.796 88 128.756 88ZM140.956 91.2C140.089 91.2 139.269 91.1333 138.496 91C137.723 90.8533 137.063 90.6533 136.516 90.4V87.3C137.116 87.58 137.783 87.8067 138.516 87.98C139.249 88.1533 139.936 88.24 140.576 88.24C141.243 88.24 141.743 88.1867 142.076 88.08C142.423 87.96 142.596 87.7 142.596 87.3C142.596 87.02 142.496 86.8 142.296 86.64C142.109 86.48 141.809 86.3333 141.396 86.2C140.996 86.0667 140.469 85.9 139.816 85.7C138.949 85.42 138.263 85.1133 137.756 84.78C137.249 84.4467 136.883 84.04 136.656 83.56C136.443 83.08 136.336 82.4933 136.336 81.8C136.336 80.5333 136.783 79.5733 137.676 78.92C138.583 78.2533 139.923 77.92 141.696 77.92C142.403 77.92 143.129 77.98 143.876 78.1C144.636 78.22 145.249 78.3533 145.716 78.5V81.62C145.089 81.3667 144.489 81.1867 143.916 81.08C143.343 80.9733 142.803 80.92 142.296 80.92C141.709 80.92 141.209 80.9667 140.796 81.06C140.383 81.1533 140.176 81.3933 140.176 81.78C140.176 82.1133 140.349 82.36 140.696 82.52C141.056 82.6667 141.689 82.86 142.596 83.1C143.649 83.38 144.449 83.72 144.996 84.12C145.556 84.52 145.936 84.9867 146.136 85.52C146.336 86.04 146.436 86.6333 146.436 87.3C146.436 88.4733 145.983 89.42 145.076 90.14C144.169 90.8467 142.796 91.2 140.956 91.2ZM151.854 91.2C150.988 91.2 150.168 91.1333 149.394 91C148.621 90.8533 147.961 90.6533 147.414 90.4V87.3C148.014 87.58 148.681 87.8067 149.414 87.98C150.148 88.1533 150.834 88.24 151.474 88.24C152.141 88.24 152.641 88.1867 152.974 88.08C153.321 87.96 153.494 87.7 153.494 87.3C153.494 87.02 153.394 86.8 153.194 86.64C153.008 86.48 152.708 86.3333 152.294 86.2C151.894 86.0667 151.368 85.9 150.714 85.7C149.848 85.42 149.161 85.1133 148.654 84.78C148.148 84.4467 147.781 84.04 147.554 83.56C147.341 83.08 147.234 82.4933 147.234 81.8C147.234 80.5333 147.681 79.5733 148.574 78.92C149.481 78.2533 150.821 77.92 152.594 77.92C153.301 77.92 154.028 77.98 154.774 78.1C155.534 78.22 156.148 78.3533 156.614 78.5V81.62C155.988 81.3667 155.388 81.1867 154.814 81.08C154.241 80.9733 153.701 80.92 153.194 80.92C152.608 80.92 152.108 80.9667 151.694 81.06C151.281 81.1533 151.074 81.3933 151.074 81.78C151.074 82.1133 151.248 82.36 151.594 82.52C151.954 82.6667 152.588 82.86 153.494 83.1C154.548 83.38 155.348 83.72 155.894 84.12C156.454 84.52 156.834 84.9867 157.034 85.52C157.234 86.04 157.334 86.6333 157.334 87.3C157.334 88.4733 156.881 89.42 155.974 90.14C155.068 90.8467 153.694 91.2 151.854 91.2Z" fill="white"/>
<path d="M71.561 103V95.916H75.301C76.0123 95.916 76.5477 96.0847 76.907 96.422C77.2737 96.7593 77.457 97.236 77.457 97.852C77.457 98.226 77.3837 98.5413 77.237 98.798C77.0977 99.0473 76.9107 99.2417 76.676 99.381C76.9987 99.4983 77.2517 99.6707 77.435 99.898C77.6183 100.125 77.71 100.466 77.71 100.921C77.71 101.596 77.512 102.113 77.116 102.472C76.72 102.824 76.1517 103 75.411 103H71.561ZM73.332 98.798H74.773C75.081 98.798 75.3047 98.7283 75.444 98.589C75.5833 98.4497 75.653 98.2553 75.653 98.006C75.653 97.7347 75.5833 97.533 75.444 97.401C75.3047 97.2617 75.0517 97.192 74.685 97.192H73.332V98.798ZM73.332 101.735H74.949C75.2717 101.735 75.51 101.669 75.664 101.537C75.8253 101.405 75.906 101.17 75.906 100.833C75.906 100.562 75.829 100.36 75.675 100.228C75.521 100.089 75.257 100.019 74.883 100.019H73.332V101.735ZM80.5879 103V95.916H82.3589V101.636H85.7029V103H80.5879ZM88.1487 103L90.8547 95.916H92.7687L95.4747 103H93.6267L92.9887 101.394H90.6237L89.9967 103H88.1487ZM90.8657 100.085H92.7467L91.8007 97.621L90.8657 100.085ZM101.336 103.11C100.097 103.11 99.1507 102.795 98.498 102.164C97.8527 101.526 97.53 100.642 97.53 99.513C97.53 98.3323 97.8454 97.4193 98.476 96.774C99.114 96.1287 100.064 95.806 101.325 95.806C101.758 95.806 102.143 95.839 102.48 95.905C102.825 95.971 103.155 96.059 103.47 96.169V97.72C102.832 97.456 102.161 97.324 101.457 97.324C100.724 97.324 100.185 97.5 99.84 97.852C99.5027 98.204 99.334 98.7577 99.334 99.513C99.334 100.232 99.5137 100.76 99.873 101.097C100.232 101.434 100.768 101.603 101.479 101.603C101.824 101.603 102.165 101.574 102.502 101.515C102.839 101.449 103.166 101.35 103.481 101.218V102.78C103.173 102.883 102.847 102.963 102.502 103.022C102.157 103.081 101.769 103.11 101.336 103.11ZM106.358 103V95.916H108.129V98.666L110.571 95.916H112.595L110.065 98.809L112.749 103H110.857L108.965 99.942L108.129 100.855V103H106.358ZM121.405 103L119.755 95.916H121.493L122.428 100.184L123.396 96.917V95.916H124.848L126.069 100.195L127.048 95.916H128.786L127.147 103H125.508L124.32 98.908L123.044 103H121.405ZM131.666 103V95.916H133.437V103H131.666ZM136.536 103V95.916H138.054L141.068 100.151V95.916H142.85V103H141.321L138.307 98.776V103H136.536ZM148.204 103.11C147.735 103.11 147.295 103.073 146.884 103C146.481 102.934 146.133 102.835 145.839 102.703V101.196C146.162 101.335 146.518 101.449 146.906 101.537C147.302 101.625 147.676 101.669 148.028 101.669C148.468 101.669 148.795 101.629 149.007 101.548C149.227 101.467 149.337 101.291 149.337 101.02C149.337 100.837 149.282 100.69 149.172 100.58C149.07 100.47 148.897 100.375 148.655 100.294C148.421 100.206 148.098 100.103 147.687 99.986C147.203 99.8393 146.818 99.678 146.532 99.502C146.246 99.3187 146.041 99.0987 145.916 98.842C145.792 98.5853 145.729 98.27 145.729 97.896C145.729 97.2213 145.971 96.7043 146.455 96.345C146.939 95.9857 147.654 95.806 148.6 95.806C149.011 95.806 149.411 95.839 149.799 95.905C150.188 95.9637 150.503 96.0333 150.745 96.114V97.632C150.43 97.5073 150.111 97.4157 149.788 97.357C149.473 97.2983 149.165 97.269 148.864 97.269C148.468 97.269 148.146 97.3057 147.896 97.379C147.654 97.4523 147.533 97.621 147.533 97.885C147.533 98.039 147.577 98.1637 147.665 98.259C147.753 98.347 147.904 98.4277 148.116 98.501C148.336 98.5743 148.633 98.6623 149.007 98.765C149.587 98.919 150.03 99.106 150.338 99.326C150.646 99.5387 150.859 99.788 150.976 100.074C151.094 100.353 151.152 100.668 151.152 101.02C151.152 101.643 150.91 102.149 150.426 102.538C149.942 102.919 149.202 103.11 148.204 103.11Z" fill="white"/>
<path fill-rule="evenodd" clip-rule="evenodd" d="M106.835 21.691C106.881 20.1914 108.111 19 109.611 19H113.778C115.278 19 116.507 20.1914 116.554 21.691L116.579 22.4722H117.944C119.479 22.4722 120.722 23.7159 120.722 25.25V26.9348C123.75 26.2496 127.018 26.7073 129.792 29.0188C135.555 33.821 135.025 43.8876 128.185 49.3937C126.535 50.7224 125.238 51.824 124.346 52.959C124.142 53.218 123.967 53.4685 123.821 53.7138L126.636 54.0945C128.013 54.2808 129.041 55.457 129.041 56.8472V62.0556C129.041 63.5897 127.798 64.8333 126.263 64.8333H97.1253C95.5912 64.8333 94.3475 63.5897 94.3475 62.0556V56.8472C94.3475 55.457 95.3753 54.2808 96.753 54.0945L99.5682 53.7138C99.4213 53.4685 99.2468 53.218 99.0431 52.959C98.1503 51.824 96.8537 50.7224 95.2033 49.3937C88.3643 43.8876 87.834 33.821 93.5967 29.0188C96.3705 26.7073 99.6387 26.2496 102.667 26.9348V25.25C102.667 23.7159 103.91 22.4722 105.444 22.4722H106.81L106.835 21.691Z" fill="#F4F7FA"/>
<path fill-rule="evenodd" clip-rule="evenodd" d="M109.611 21.7778H113.778L113.886 25.2501H117.944V29.4167H114.016L114.207 34.1341C114.283 34.0444 114.362 33.9564 114.443 33.8705C118.237 29.8383 123.862 27.6926 128.014 31.1528C132.181 34.6251 132.181 42.6112 126.444 47.23C123.194 49.8465 120.283 52.3687 120.426 56.0578L126.264 56.8473V62.0556H97.1254V56.8473L102.963 56.0578C103.106 52.3687 100.195 49.8464 96.9453 47.23C91.2083 42.6112 91.2083 34.6251 95.375 31.1528C99.5273 27.6926 105.152 29.8383 108.946 33.8705C109.027 33.9564 109.105 34.0444 109.182 34.1341L109.372 29.4167H105.444V25.2501H109.503L109.611 21.7778ZM105.686 37.7314C108.232 41.9022 108.569 46.7778 108.569 48.8981C107.293 48.9004 102.482 46.7837 99.9345 43.3088C98.1006 40.8072 97.6224 37.0955 99.1944 35.6546C100.767 34.2136 104.095 35.1247 105.686 37.7314ZM117.703 37.7314C115.156 41.9022 114.819 46.7778 114.819 48.8981C116.096 48.9004 120.907 46.7837 123.454 43.3088C125.288 40.8072 125.767 37.0955 124.194 35.6546C122.622 34.2136 119.294 35.1247 117.703 37.7314Z" fill="#2E2E2E"/>
</svg>
