<svg width="222" height="252" viewBox="0 0 222 252" fill="none" xmlns="http://www.w3.org/2000/svg">
<rect width="222" height="252" rx="10" fill="#323232" fill-opacity="0.96"/>
<path d="M61.68 91.2C59.3467 91.2 57.5667 90.6267 56.34 89.48C55.1133 88.3333 54.5 86.7133 54.5 84.62C54.5 82.46 55.1 80.8067 56.3 79.66C57.5 78.5 59.2867 77.92 61.66 77.92C62.46 77.92 63.1733 77.98 63.8 78.1C64.4267 78.22 65.0267 78.3867 65.6 78.6V81.88C64.4533 81.3733 63.2267 81.12 61.92 81.12C60.7067 81.12 59.8067 81.4 59.22 81.96C58.6333 82.5067 58.34 83.3933 58.34 84.62C58.34 85.82 58.6467 86.6867 59.26 87.22C59.8867 87.74 60.7867 88 61.96 88C62.6 88 63.22 87.94 63.82 87.82C64.4333 87.7 65.04 87.5133 65.64 87.26V90.56C65.0667 90.76 64.46 90.9133 63.82 91.02C63.1933 91.14 62.48 91.2 61.68 91.2ZM67.0484 91V78.12H70.8084V82.92H75.2484V78.12H79.0084V91H75.2484V86.2H70.8084V91H67.0484ZM80.818 91V78.12H90.578V81H84.578V83.1H89.838V86.02H84.578V88.12H90.578V91H80.818ZM98.555 91.2C96.2217 91.2 94.4417 90.6267 93.215 89.48C91.9883 88.3333 91.375 86.7133 91.375 84.62C91.375 82.46 91.975 80.8067 93.175 79.66C94.375 78.5 96.1617 77.92 98.535 77.92C99.335 77.92 100.048 77.98 100.675 78.1C101.302 78.22 101.902 78.3867 102.475 78.6V81.88C101.328 81.3733 100.102 81.12 98.795 81.12C97.5817 81.12 96.6817 81.4 96.095 81.96C95.5083 82.5067 95.215 83.3933 95.215 84.62C95.215 85.82 95.5217 86.6867 96.135 87.22C96.7617 87.74 97.6617 88 98.835 88C99.475 88 100.095 87.94 100.695 87.82C101.308 87.7 101.915 87.5133 102.515 87.26V90.56C101.942 90.76 101.335 90.9133 100.695 91.02C100.068 91.14 99.355 91.2 98.555 91.2ZM103.923 91V78.12H107.683V82.66L111.583 78.12H115.863L111.323 83.4L116.183 91H112.183L109.003 85.8L107.683 87.28V91H103.923ZM117.576 91V78.12H121.236L124.436 84.66L127.616 78.12H131.256V91H127.496V84.56L125.436 88.8H123.416L121.336 84.56V91H117.576ZM132.664 91L137.604 78.12H141.584L146.524 91H142.604L141.524 88.26H137.644L136.584 91H132.664ZM138.144 85.56H141.024L139.584 81.78L138.144 85.56ZM149.048 91V80.92H145.428V78.12H156.428V80.92H152.808V91H149.048ZM157.42 91V78.12H167.18V81H161.18V83.1H166.44V86.02H161.18V88.12H167.18V91H157.42Z" fill="white"/>
<path d="M72.561 103V95.916H76.301C77.0123 95.916 77.5477 96.0847 77.907 96.422C78.2737 96.7593 78.457 97.236 78.457 97.852C78.457 98.226 78.3837 98.5413 78.237 98.798C78.0977 99.0473 77.9107 99.2417 77.676 99.381C77.9987 99.4983 78.2517 99.6707 78.435 99.898C78.6183 100.125 78.71 100.466 78.71 100.921C78.71 101.596 78.512 102.113 78.116 102.472C77.72 102.824 77.1517 103 76.411 103H72.561ZM74.332 98.798H75.773C76.081 98.798 76.3047 98.7283 76.444 98.589C76.5833 98.4497 76.653 98.2553 76.653 98.006C76.653 97.7347 76.5833 97.533 76.444 97.401C76.3047 97.2617 76.0517 97.192 75.685 97.192H74.332V98.798ZM74.332 101.735H75.949C76.2717 101.735 76.51 101.669 76.664 101.537C76.8253 101.405 76.906 101.17 76.906 100.833C76.906 100.562 76.829 100.36 76.675 100.228C76.521 100.089 76.257 100.019 75.883 100.019H74.332V101.735ZM81.5879 103V95.916H83.3589V101.636H86.7029V103H81.5879ZM89.1487 103L91.8547 95.916H93.7687L96.4747 103H94.6267L93.9887 101.394H91.6237L90.9967 103H89.1487ZM91.8657 100.085H93.7467L92.8007 97.621L91.8657 100.085ZM102.336 103.11C101.097 103.11 100.151 102.795 99.498 102.164C98.8527 101.526 98.53 100.642 98.53 99.513C98.53 98.3323 98.8454 97.4193 99.476 96.774C100.114 96.1287 101.064 95.806 102.325 95.806C102.758 95.806 103.143 95.839 103.48 95.905C103.825 95.971 104.155 96.059 104.47 96.169V97.72C103.832 97.456 103.161 97.324 102.457 97.324C101.724 97.324 101.185 97.5 100.84 97.852C100.503 98.204 100.334 98.7577 100.334 99.513C100.334 100.232 100.514 100.76 100.873 101.097C101.232 101.434 101.768 101.603 102.479 101.603C102.824 101.603 103.165 101.574 103.502 101.515C103.839 101.449 104.166 101.35 104.481 101.218V102.78C104.173 102.883 103.847 102.963 103.502 103.022C103.157 103.081 102.769 103.11 102.336 103.11ZM107.358 103V95.916H109.129V98.666L111.571 95.916H113.595L111.065 98.809L113.749 103H111.857L109.965 99.942L109.129 100.855V103H107.358ZM122.405 103L120.755 95.916H122.493L123.428 100.184L124.396 96.917V95.916H125.848L127.069 100.195L128.048 95.916H129.786L128.147 103H126.508L125.32 98.908L124.044 103H122.405ZM132.666 103V95.916H134.437V103H132.666ZM137.536 103V95.916H139.054L142.068 100.151V95.916H143.85V103H142.321L139.307 98.776V103H137.536ZM149.204 103.11C148.735 103.11 148.295 103.073 147.884 103C147.481 102.934 147.133 102.835 146.839 102.703V101.196C147.162 101.335 147.518 101.449 147.906 101.537C148.302 101.625 148.676 101.669 149.028 101.669C149.468 101.669 149.795 101.629 150.007 101.548C150.227 101.467 150.337 101.291 150.337 101.02C150.337 100.837 150.282 100.69 150.172 100.58C150.07 100.47 149.897 100.375 149.655 100.294C149.421 100.206 149.098 100.103 148.687 99.986C148.203 99.8393 147.818 99.678 147.532 99.502C147.246 99.3187 147.041 99.0987 146.916 98.842C146.792 98.5853 146.729 98.27 146.729 97.896C146.729 97.2213 146.971 96.7043 147.455 96.345C147.939 95.9857 148.654 95.806 149.6 95.806C150.011 95.806 150.411 95.839 150.799 95.905C151.188 95.9637 151.503 96.0333 151.745 96.114V97.632C151.43 97.5073 151.111 97.4157 150.788 97.357C150.473 97.2983 150.165 97.269 149.864 97.269C149.468 97.269 149.146 97.3057 148.896 97.379C148.654 97.4523 148.533 97.621 148.533 97.885C148.533 98.039 148.577 98.1637 148.665 98.259C148.753 98.347 148.904 98.4277 149.116 98.501C149.336 98.5743 149.633 98.6623 150.007 98.765C150.587 98.919 151.03 99.106 151.338 99.326C151.646 99.5387 151.859 99.788 151.976 100.074C152.094 100.353 152.152 100.668 152.152 101.02C152.152 101.643 151.91 102.149 151.426 102.538C150.942 102.919 150.202 103.11 149.204 103.11Z" fill="white"/>
<path fill-rule="evenodd" clip-rule="evenodd" d="M106.835 21.691C106.881 20.1914 108.111 19 109.611 19H113.778C115.278 19 116.507 20.1914 116.554 21.691L116.579 22.4722H117.944C119.479 22.4722 120.722 23.7159 120.722 25.25V26.9348C123.75 26.2496 127.018 26.7073 129.792 29.0188C135.555 33.821 135.025 43.8876 128.185 49.3937C126.535 50.7224 125.238 51.824 124.346 52.959C124.142 53.218 123.967 53.4685 123.821 53.7138L126.636 54.0945C128.013 54.2808 129.041 55.457 129.041 56.8472V62.0556C129.041 63.5897 127.798 64.8333 126.263 64.8333H97.1253C95.5912 64.8333 94.3475 63.5897 94.3475 62.0556V56.8472C94.3475 55.457 95.3753 54.2808 96.753 54.0945L99.5682 53.7138C99.4213 53.4685 99.2468 53.218 99.0431 52.959C98.1503 51.824 96.8537 50.7224 95.2033 49.3937C88.3643 43.8876 87.834 33.821 93.5967 29.0188C96.3705 26.7073 99.6387 26.2496 102.667 26.9348V25.25C102.667 23.7159 103.91 22.4722 105.444 22.4722H106.81L106.835 21.691Z" fill="#F4F7FA"/>
<path fill-rule="evenodd" clip-rule="evenodd" d="M109.611 21.7778H113.778L113.886 25.2501H117.944V29.4167H114.016L114.207 34.1341C114.283 34.0444 114.362 33.9564 114.443 33.8705C118.237 29.8383 123.862 27.6926 128.014 31.1528C132.181 34.6251 132.181 42.6112 126.444 47.23C123.194 49.8465 120.283 52.3687 120.426 56.0578L126.264 56.8473V62.0556H97.1254V56.8473L102.963 56.0578C103.106 52.3687 100.195 49.8464 96.9453 47.23C91.2083 42.6112 91.2083 34.6251 95.375 31.1528C99.5273 27.6926 105.152 29.8383 108.946 33.8705C109.027 33.9564 109.105 34.0444 109.182 34.1341L109.372 29.4167H105.444V25.2501H109.503L109.611 21.7778ZM105.686 37.7314C108.232 41.9022 108.569 46.7778 108.569 48.8981C107.293 48.9004 102.482 46.7837 99.9345 43.3088C98.1006 40.8072 97.6224 37.0955 99.1944 35.6546C100.767 34.2136 104.095 35.1247 105.686 37.7314ZM117.703 37.7314C115.156 41.9022 114.819 46.7778 114.819 48.8981C116.096 48.9004 120.907 46.7837 123.454 43.3088C125.288 40.8072 125.767 37.0955 124.194 35.6546C122.622 34.2136 119.294 35.1247 117.703 37.7314Z" fill="#2E2E2E"/>
</svg>
