<svg width="222" height="252" viewBox="0 0 222 252" fill="none" xmlns="http://www.w3.org/2000/svg">
<rect width="222" height="252" rx="10" fill="#323232" fill-opacity="0.96"/>
<path d="M84.902 91V78.12H90.662C91.982 78.12 93.1086 78.34 94.042 78.78C94.9753 79.2067 95.6886 79.9 96.182 80.86C96.6753 81.8067 96.922 83.0667 96.922 84.64C96.922 86.8533 96.382 88.4667 95.302 89.48C94.222 90.4933 92.6753 91 90.662 91H84.902ZM88.662 88.12H90.182C90.8086 88.12 91.3353 88.0333 91.762 87.86C92.1886 87.6733 92.5153 87.3333 92.742 86.84C92.9686 86.3333 93.082 85.6 93.082 84.64C93.082 83.68 92.9753 82.94 92.762 82.42C92.562 81.8867 92.2486 81.52 91.822 81.32C91.3953 81.1067 90.8486 81 90.182 81H88.662V88.12ZM98.3199 91V78.12H105.02C106.073 78.12 106.933 78.3133 107.6 78.7C108.28 79.0867 108.787 79.6267 109.12 80.32C109.453 81 109.62 81.7933 109.62 82.7C109.62 83.5667 109.4 84.3333 108.96 85C108.533 85.6533 107.96 86.1533 107.24 86.5C107.387 86.62 107.513 86.7667 107.62 86.94C107.727 87.1 107.847 87.3267 107.98 87.62L109.46 91H105.54L104.18 87.9C104.073 87.66 103.94 87.4933 103.78 87.4C103.633 87.2933 103.42 87.24 103.14 87.24H102.08V91H98.3199ZM102.08 84.36H104.06C104.607 84.36 105.027 84.22 105.32 83.94C105.627 83.6467 105.78 83.2333 105.78 82.7C105.78 81.5667 105.247 81 104.18 81H102.08V84.36ZM109.717 91L114.657 78.12H118.637L123.577 91H119.657L118.577 88.26H114.697L113.637 91H109.717ZM115.197 85.56H118.077L116.637 81.78L115.197 85.56ZM125.686 91L122.686 78.12H126.366L127.826 84.94L129.246 80.06V78.12H132.326L134.286 84.96L135.826 78.12H139.506L136.526 91H133.126L131.186 84.34L129.086 91H125.686Z" fill="white"/>
<path fill-rule="evenodd" clip-rule="evenodd" d="M80.8346 21.691C80.8815 20.1914 82.1107 19 83.6111 19H87.7777C89.2781 19 90.5073 20.1914 90.5541 21.691L90.5786 22.4722H91.9444C93.4785 22.4722 94.7222 23.7159 94.7222 25.25V26.9348C97.7501 26.2496 101.018 26.7073 103.792 29.0188C109.555 33.821 109.025 43.8876 102.185 49.3937C100.535 50.7224 99.2385 51.824 98.3457 52.959C98.142 53.218 97.9675 53.4685 97.8206 53.7138L100.636 54.0945C102.013 54.2808 103.041 55.457 103.041 56.8472V62.0556C103.041 63.5897 101.798 64.8333 100.263 64.8333H71.1253C69.5912 64.8333 68.3475 63.5897 68.3475 62.0556V56.8472C68.3475 55.457 69.3753 54.2808 70.753 54.0945L73.5682 53.7138C73.4213 53.4685 73.2468 53.218 73.0431 52.959C72.1503 51.824 70.8537 50.7224 69.2033 49.3937C62.3643 43.8876 61.834 33.821 67.5967 29.0188C70.3705 26.7073 73.6387 26.2496 76.6666 26.9348V25.25C76.6666 23.7159 77.9103 22.4722 79.4444 22.4722H80.8102L80.8346 21.691Z" fill="black" fill-opacity="0.21"/>
<path fill-rule="evenodd" clip-rule="evenodd" d="M83.6111 21.7778H87.7778L87.8863 25.2501H91.9444V29.4167H88.0165L88.2073 34.1341C88.2834 34.0444 88.3619 33.9564 88.4427 33.8705C92.2365 29.8383 97.8616 27.6926 102.014 31.1528C106.181 34.6251 106.181 42.6112 100.444 47.23C97.1937 49.8465 94.2829 52.3687 94.4263 56.0578L100.264 56.8473V62.0556H71.1254V56.8473L76.9626 56.0578C77.106 52.3687 74.1951 49.8464 70.9453 47.23C65.2083 42.6112 65.2083 34.6251 69.375 31.1528C73.5273 27.6926 79.1524 29.8383 82.9462 33.8705C83.027 33.9564 83.1054 34.0444 83.1816 34.1341L83.3724 29.4167H79.4444V25.2501H83.5026L83.6111 21.7778ZM79.6861 37.7314C82.2324 41.9022 82.5694 46.7778 82.5694 48.8981C81.2932 48.9004 76.4818 46.7837 73.9345 43.3088C72.1006 40.8072 71.6224 37.0955 73.1944 35.6546C74.7665 34.2136 78.0947 35.1247 79.6861 37.7314ZM91.7028 37.7314C89.1565 41.9022 88.8194 46.7778 88.8194 48.8981C90.0957 48.9004 94.9071 46.7837 97.4544 43.3088C99.2883 40.8072 99.7665 37.0955 98.1944 35.6546C96.6224 34.2136 93.2942 35.1247 91.7028 37.7314Z" fill="#F4F7FA"/>
<path fill-rule="evenodd" clip-rule="evenodd" d="M135.835 21.691C135.881 20.1914 137.111 19 138.611 19H142.778C144.278 19 145.507 20.1914 145.554 21.691L145.579 22.4722H146.944C148.479 22.4722 149.722 23.7159 149.722 25.25V26.9348C152.75 26.2496 156.018 26.7073 158.792 29.0188C164.555 33.821 164.025 43.8876 157.185 49.3937C155.535 50.7224 154.238 51.824 153.346 52.959C153.142 53.218 152.967 53.4685 152.821 53.7138L155.636 54.0945C157.013 54.2808 158.041 55.457 158.041 56.8472V62.0556C158.041 63.5897 156.798 64.8333 155.263 64.8333H126.125C124.591 64.8333 123.348 63.5897 123.348 62.0556V56.8472C123.348 55.457 124.375 54.2808 125.753 54.0945L128.568 53.7138C128.421 53.4685 128.247 53.218 128.043 52.959C127.15 51.824 125.854 50.7224 124.203 49.3937C117.364 43.8876 116.834 33.821 122.597 29.0188C125.371 26.7073 128.639 26.2496 131.667 26.9348V25.25C131.667 23.7159 132.91 22.4722 134.444 22.4722H135.81L135.835 21.691Z" fill="#F4F7FA"/>
<path fill-rule="evenodd" clip-rule="evenodd" d="M138.611 21.7778H142.778L142.886 25.2501H146.944V29.4167H143.016L143.207 34.1341C143.283 34.0444 143.362 33.9564 143.443 33.8705C147.237 29.8383 152.862 27.6926 157.014 31.1528C161.181 34.6251 161.181 42.6112 155.444 47.23C152.194 49.8465 149.283 52.3687 149.426 56.0578L155.264 56.8473V62.0556H126.125V56.8473L131.963 56.0578C132.106 52.3687 129.195 49.8464 125.945 47.23C120.208 42.6112 120.208 34.6251 124.375 31.1528C128.527 27.6926 134.152 29.8383 137.946 33.8705C138.027 33.9564 138.105 34.0444 138.182 34.1341L138.372 29.4167H134.444V25.2501H138.503L138.611 21.7778ZM134.686 37.7314C137.232 41.9022 137.569 46.7778 137.569 48.8981C136.293 48.9004 131.482 46.7837 128.934 43.3088C127.101 40.8072 126.622 37.0955 128.194 35.6546C129.767 34.2136 133.095 35.1247 134.686 37.7314ZM146.703 37.7314C144.156 41.9022 143.819 46.7778 143.819 48.8981C145.096 48.9004 149.907 46.7837 152.454 43.3088C154.288 40.8072 154.767 37.0955 153.194 35.6546C151.622 34.2136 148.294 35.1247 146.703 37.7314Z" fill="#2E2E2E"/>
</svg>
