<svg width="222" height="252" viewBox="0 0 222 252" fill="none" xmlns="http://www.w3.org/2000/svg">
<rect width="222" height="252" rx="10" fill="#323232" fill-opacity="0.96"/>
<path d="M34.0568 87V77.984H36.6888V87H34.0568ZM37.9532 87V77.984H40.1932L43.5952 82.758V77.984H46.2272V87H43.9732L40.5852 82.24V87H37.9532ZM50.4365 87.14C49.8299 87.14 49.2559 87.0933 48.7145 87C48.1732 86.8973 47.7112 86.7573 47.3285 86.58V84.41C47.7485 84.606 48.2152 84.7647 48.7285 84.886C49.2419 85.0073 49.7225 85.068 50.1705 85.068C50.6372 85.068 50.9872 85.0307 51.2205 84.956C51.4632 84.872 51.5845 84.69 51.5845 84.41C51.5845 84.214 51.5145 84.06 51.3745 83.948C51.2439 83.836 51.0339 83.7333 50.7445 83.64C50.4645 83.5467 50.0959 83.43 49.6385 83.29C49.0319 83.094 48.5512 82.8793 48.1965 82.646C47.8419 82.4127 47.5852 82.128 47.4265 81.792C47.2772 81.456 47.2025 81.0453 47.2025 80.56C47.2025 79.6733 47.5152 79.0013 48.1405 78.544C48.7752 78.0773 49.7132 77.844 50.9545 77.844C51.4492 77.844 51.9579 77.886 52.4805 77.97C53.0125 78.054 53.4419 78.1473 53.7685 78.25V80.434C53.3299 80.2567 52.9099 80.1307 52.5085 80.056C52.1072 79.9813 51.7292 79.944 51.3745 79.944C50.9639 79.944 50.6139 79.9767 50.3245 80.042C50.0352 80.1073 49.8905 80.2753 49.8905 80.546C49.8905 80.7793 50.0119 80.952 50.2545 81.064C50.5065 81.1667 50.9499 81.302 51.5845 81.47C52.3219 81.666 52.8819 81.904 53.2645 82.184C53.6565 82.464 53.9225 82.7907 54.0625 83.164C54.2025 83.528 54.2725 83.9433 54.2725 84.41C54.2725 85.2313 53.9552 85.894 53.3205 86.398C52.6859 86.8927 51.7245 87.14 50.4365 87.14ZM59.4482 87.14C58.6082 87.14 57.8662 87.0047 57.2222 86.734C56.5875 86.454 56.0882 86.048 55.7242 85.516C55.3602 84.9747 55.1782 84.312 55.1782 83.528V77.984H57.8102V83.248C57.8102 84.3493 58.3562 84.9 59.4482 84.9C59.9708 84.9 60.3722 84.7647 60.6522 84.494C60.9322 84.2233 61.0722 83.808 61.0722 83.248V77.984H63.7042V83.528C63.7042 84.312 63.5222 84.9747 63.1582 85.516C62.8035 86.048 62.3042 86.454 61.6602 86.734C61.0255 87.0047 60.2882 87.14 59.4482 87.14ZM64.9005 87V77.984H71.6765V79.944H67.5325V81.498H71.1445V83.486H67.5325V87H64.9005ZM72.379 87V77.984H79.155V79.944H75.011V81.498H78.623V83.486H75.011V87H72.379ZM79.8575 87V77.984H82.4895V87H79.8575ZM88.5 87.14C86.8667 87.14 85.6207 86.7387 84.762 85.936C83.9034 85.1333 83.474 83.9993 83.474 82.534C83.474 81.022 83.894 79.8647 84.734 79.062C85.574 78.25 86.8247 77.844 88.486 77.844C89.046 77.844 89.5454 77.886 89.984 77.97C90.4227 78.054 90.8427 78.1707 91.244 78.32V80.616C90.4414 80.2613 89.5827 80.084 88.668 80.084C87.8187 80.084 87.1887 80.28 86.778 80.672C86.3674 81.0547 86.162 81.6753 86.162 82.534C86.162 83.374 86.3767 83.9807 86.806 84.354C87.2447 84.718 87.8747 84.9 88.696 84.9C89.144 84.9 89.578 84.858 89.998 84.774C90.4274 84.69 90.852 84.5593 91.272 84.382V86.692C90.8707 86.832 90.446 86.9393 89.998 87.014C89.5594 87.098 89.06 87.14 88.5 87.14ZM92.2579 87V77.984H94.8899V87H92.2579ZM96.1544 87V77.984H102.986V80H98.7864V81.47H102.468V83.514H98.7864V84.984H102.986V87H96.1544ZM103.824 87V77.984H106.064L109.466 82.758V77.984H112.098V87H109.844L106.456 82.24V87H103.824ZM115.328 87V79.944H112.794V77.984H120.494V79.944H117.96V87H115.328ZM124.059 87V77.984H126.621L128.861 82.562L131.087 77.984H133.635V87H131.003V82.492L129.561 85.46H128.147L126.691 82.492V87H124.059ZM134.621 87L138.079 77.984H140.865L144.323 87H141.579L140.823 85.082H138.107L137.365 87H134.621ZM138.457 83.192H140.473L139.465 80.546L138.457 83.192ZM146.089 87V79.944H143.555V77.984H151.255V79.944H148.721V87H146.089ZM151.949 87V77.984H158.781V80H154.581V81.47H158.263V83.514H154.581V84.984H158.781V87H151.949ZM159.619 87V77.984H164.309C165.047 77.984 165.649 78.1193 166.115 78.39C166.591 78.6607 166.946 79.0387 167.179 79.524C167.413 80 167.529 80.5553 167.529 81.19C167.529 81.7967 167.375 82.3333 167.067 82.8C166.769 83.2573 166.367 83.6073 165.863 83.85C165.966 83.934 166.055 84.0367 166.129 84.158C166.204 84.27 166.288 84.4287 166.381 84.634L167.417 87H164.673L163.721 84.83C163.647 84.662 163.553 84.5453 163.441 84.48C163.339 84.4053 163.189 84.368 162.993 84.368H162.251V87H159.619ZM162.251 82.352H163.637C164.02 82.352 164.314 82.254 164.519 82.058C164.734 81.8527 164.841 81.5633 164.841 81.19C164.841 80.3967 164.468 80 163.721 80H162.251V82.352ZM168.506 87V77.984H171.138V87H168.506ZM172.122 87L175.58 77.984H178.366L181.824 87H179.08L178.324 85.082H175.608L174.866 87H172.122ZM175.958 83.192H177.974L176.966 80.546L175.958 83.192ZM182.807 87V77.984H185.439V84.984H189.499V87H182.807Z" fill="white"/>
<path d="M93.561 99V91.916H96.63C97.3487 91.916 97.9537 92.037 98.445 92.279C98.9363 92.5137 99.3103 92.895 99.567 93.423C99.8237 93.9437 99.952 94.6367 99.952 95.502C99.952 96.7193 99.6697 97.6067 99.105 98.164C98.5477 98.7213 97.7227 99 96.63 99H93.561ZM95.332 97.636H96.388C96.7693 97.636 97.0883 97.581 97.345 97.471C97.609 97.3537 97.807 97.141 97.939 96.833C98.0783 96.525 98.148 96.0813 98.148 95.502C98.148 94.9153 98.0857 94.4643 97.961 94.149C97.8437 93.8263 97.653 93.6027 97.389 93.478C97.1323 93.346 96.7987 93.28 96.388 93.28H95.332V97.636ZM102.835 99V91.916H106.377C107.213 91.916 107.829 92.136 108.225 92.576C108.621 93.016 108.819 93.6063 108.819 94.347C108.819 94.8237 108.698 95.2417 108.456 95.601C108.214 95.9603 107.884 96.228 107.466 96.404C107.569 96.4847 107.649 96.5763 107.708 96.679C107.774 96.7743 107.844 96.91 107.917 97.086L108.753 99H106.905L106.113 97.196C106.047 97.042 105.963 96.932 105.86 96.866C105.757 96.7927 105.611 96.756 105.42 96.756H104.606V99H102.835ZM104.606 95.392H105.915C106.26 95.392 106.527 95.3077 106.718 95.139C106.916 94.963 107.015 94.699 107.015 94.347C107.015 93.6357 106.674 93.28 105.992 93.28H104.606V95.392ZM110.987 99L113.693 91.916H115.607L118.313 99H116.465L115.827 97.394H113.462L112.835 99H110.987ZM113.704 96.085H115.585L114.639 93.621L113.704 96.085ZM121.577 99L119.927 91.916H121.665L122.6 96.184L123.568 92.917V91.916H125.02L126.241 96.195L127.22 91.916H128.958L127.319 99H125.68L124.492 94.908L123.216 99H121.577Z" fill="white"/>
<path fill-rule="evenodd" clip-rule="evenodd" d="M80.8346 21.691C80.8815 20.1914 82.1107 19 83.6111 19H87.7777C89.2781 19 90.5073 20.1914 90.5541 21.691L90.5786 22.4722H91.9444C93.4785 22.4722 94.7222 23.7159 94.7222 25.25V26.9348C97.7501 26.2496 101.018 26.7073 103.792 29.0188C109.555 33.821 109.025 43.8876 102.185 49.3937C100.535 50.7224 99.2385 51.824 98.3457 52.959C98.142 53.218 97.9675 53.4685 97.8206 53.7138L100.636 54.0945C102.013 54.2808 103.041 55.457 103.041 56.8472V62.0556C103.041 63.5897 101.798 64.8333 100.263 64.8333H71.1253C69.5912 64.8333 68.3475 63.5897 68.3475 62.0556V56.8472C68.3475 55.457 69.3753 54.2808 70.753 54.0945L73.5682 53.7138C73.4213 53.4685 73.2468 53.218 73.0431 52.959C72.1503 51.824 70.8537 50.7224 69.2033 49.3937C62.3643 43.8876 61.834 33.821 67.5967 29.0188C70.3705 26.7073 73.6387 26.2496 76.6666 26.9348V25.25C76.6666 23.7159 77.9103 22.4722 79.4444 22.4722H80.8102L80.8346 21.691Z" fill="black" fill-opacity="0.21"/>
<path fill-rule="evenodd" clip-rule="evenodd" d="M83.6111 21.7778H87.7778L87.8863 25.2501H91.9444V29.4167H88.0165L88.2073 34.1341C88.2834 34.0444 88.3619 33.9564 88.4427 33.8705C92.2365 29.8383 97.8616 27.6926 102.014 31.1528C106.181 34.6251 106.181 42.6112 100.444 47.23C97.1937 49.8465 94.2829 52.3687 94.4263 56.0578L100.264 56.8473V62.0556H71.1254V56.8473L76.9626 56.0578C77.106 52.3687 74.1951 49.8464 70.9453 47.23C65.2083 42.6112 65.2083 34.6251 69.375 31.1528C73.5273 27.6926 79.1524 29.8383 82.9462 33.8705C83.027 33.9564 83.1054 34.0444 83.1816 34.1341L83.3724 29.4167H79.4444V25.2501H83.5026L83.6111 21.7778ZM79.6861 37.7314C82.2324 41.9022 82.5694 46.7778 82.5694 48.8981C81.2932 48.9004 76.4818 46.7837 73.9345 43.3088C72.1006 40.8072 71.6224 37.0955 73.1944 35.6546C74.7665 34.2136 78.0947 35.1247 79.6861 37.7314ZM91.7028 37.7314C89.1565 41.9022 88.8194 46.7778 88.8194 48.8981C90.0957 48.9004 94.9071 46.7837 97.4544 43.3088C99.2883 40.8072 99.7665 37.0955 98.1944 35.6546C96.6224 34.2136 93.2942 35.1247 91.7028 37.7314Z" fill="#F4F7FA"/>
<path fill-rule="evenodd" clip-rule="evenodd" d="M135.835 21.691C135.881 20.1914 137.111 19 138.611 19H142.778C144.278 19 145.507 20.1914 145.554 21.691L145.579 22.4722H146.944C148.479 22.4722 149.722 23.7159 149.722 25.25V26.9348C152.75 26.2496 156.018 26.7073 158.792 29.0188C164.555 33.821 164.025 43.8876 157.185 49.3937C155.535 50.7224 154.238 51.824 153.346 52.959C153.142 53.218 152.967 53.4685 152.821 53.7138L155.636 54.0945C157.013 54.2808 158.041 55.457 158.041 56.8472V62.0556C158.041 63.5897 156.798 64.8333 155.263 64.8333H126.125C124.591 64.8333 123.348 63.5897 123.348 62.0556V56.8472C123.348 55.457 124.375 54.2808 125.753 54.0945L128.568 53.7138C128.421 53.4685 128.247 53.218 128.043 52.959C127.15 51.824 125.854 50.7224 124.203 49.3937C117.364 43.8876 116.834 33.821 122.597 29.0188C125.371 26.7073 128.639 26.2496 131.667 26.9348V25.25C131.667 23.7159 132.91 22.4722 134.444 22.4722H135.81L135.835 21.691Z" fill="#F4F7FA"/>
<path fill-rule="evenodd" clip-rule="evenodd" d="M138.611 21.7778H142.778L142.886 25.2501H146.944V29.4167H143.016L143.207 34.1341C143.283 34.0444 143.362 33.9564 143.443 33.8705C147.237 29.8383 152.862 27.6926 157.014 31.1528C161.181 34.6251 161.181 42.6112 155.444 47.23C152.194 49.8465 149.283 52.3687 149.426 56.0578L155.264 56.8473V62.0556H126.125V56.8473L131.963 56.0578C132.106 52.3687 129.195 49.8464 125.945 47.23C120.208 42.6112 120.208 34.6251 124.375 31.1528C128.527 27.6926 134.152 29.8383 137.946 33.8705C138.027 33.9564 138.105 34.0444 138.182 34.1341L138.372 29.4167H134.444V25.2501H138.503L138.611 21.7778ZM134.686 37.7314C137.232 41.9022 137.569 46.7778 137.569 48.8981C136.293 48.9004 131.482 46.7837 128.934 43.3088C127.101 40.8072 126.622 37.0955 128.194 35.6546C129.767 34.2136 133.095 35.1247 134.686 37.7314ZM146.703 37.7314C144.156 41.9022 143.819 46.7778 143.819 48.8981C145.096 48.9004 149.907 46.7837 152.454 43.3088C154.288 40.8072 154.767 37.0955 153.194 35.6546C151.622 34.2136 148.294 35.1247 146.703 37.7314Z" fill="#2E2E2E"/>
</svg>
