<svg width="222" height="252" viewBox="0 0 222 252" fill="none" xmlns="http://www.w3.org/2000/svg">
<rect width="222" height="252" rx="10" fill="#323232" fill-opacity="0.96"/>
<path d="M51.1637 91V78.12H54.9237V91H51.1637ZM56.7301 91V78.12H59.9301L64.7901 84.94V78.12H68.5501V91H65.3301L60.4901 84.2V91H56.7301ZM74.5634 91.2C73.6967 91.2 72.8767 91.1333 72.1034 91C71.33 90.8533 70.67 90.6533 70.1234 90.4V87.3C70.7234 87.58 71.39 87.8067 72.1234 87.98C72.8567 88.1533 73.5434 88.24 74.1834 88.24C74.85 88.24 75.35 88.1867 75.6834 88.08C76.03 87.96 76.2034 87.7 76.2034 87.3C76.2034 87.02 76.1034 86.8 75.9034 86.64C75.7167 86.48 75.4167 86.3333 75.0034 86.2C74.6034 86.0667 74.0767 85.9 73.4234 85.7C72.5567 85.42 71.87 85.1133 71.3634 84.78C70.8567 84.4467 70.49 84.04 70.2634 83.56C70.05 83.08 69.9434 82.4933 69.9434 81.8C69.9434 80.5333 70.39 79.5733 71.2834 78.92C72.19 78.2533 73.53 77.92 75.3034 77.92C76.01 77.92 76.7367 77.98 77.4834 78.1C78.2434 78.22 78.8567 78.3533 79.3234 78.5V81.62C78.6967 81.3667 78.0967 81.1867 77.5234 81.08C76.95 80.9733 76.41 80.92 75.9034 80.92C75.3167 80.92 74.8167 80.9667 74.4034 81.06C73.99 81.1533 73.7834 81.3933 73.7834 81.78C73.7834 82.1133 73.9567 82.36 74.3034 82.52C74.6634 82.6667 75.2967 82.86 76.2034 83.1C77.2567 83.38 78.0567 83.72 78.6034 84.12C79.1634 84.52 79.5434 84.9867 79.7434 85.52C79.9434 86.04 80.0434 86.6333 80.0434 87.3C80.0434 88.4733 79.59 89.42 78.6834 90.14C77.7767 90.8467 76.4034 91.2 74.5634 91.2ZM87.4371 91.2C86.2371 91.2 85.1771 91.0067 84.2571 90.62C83.3504 90.22 82.6371 89.64 82.1171 88.88C81.5971 88.1067 81.3371 87.16 81.3371 86.04V78.12H85.0971V85.64C85.0971 87.2133 85.8771 88 87.4371 88C88.1838 88 88.7571 87.8067 89.1571 87.42C89.5571 87.0333 89.7571 86.44 89.7571 85.64V78.12H93.5171V86.04C93.5171 87.16 93.2571 88.1067 92.7371 88.88C92.2304 89.64 91.5171 90.22 90.5971 90.62C89.6904 91.0067 88.6371 91.2 87.4371 91.2ZM95.2262 91V78.12H104.906V80.92H98.9862V83.14H104.146V85.98H98.9862V91H95.2262ZM105.91 91V78.12H115.59V80.92H109.67V83.14H114.83V85.98H109.67V91H105.91ZM116.593 91V78.12H120.353V91H116.593ZM128.94 91.2C126.606 91.2 124.826 90.6267 123.6 89.48C122.373 88.3333 121.76 86.7133 121.76 84.62C121.76 82.46 122.36 80.8067 123.56 79.66C124.76 78.5 126.546 77.92 128.92 77.92C129.72 77.92 130.433 77.98 131.06 78.1C131.686 78.22 132.286 78.3867 132.86 78.6V81.88C131.713 81.3733 130.486 81.12 129.18 81.12C127.966 81.12 127.066 81.4 126.48 81.96C125.893 82.5067 125.6 83.3933 125.6 84.62C125.6 85.82 125.906 86.6867 126.52 87.22C127.146 87.74 128.046 88 129.22 88C129.86 88 130.48 87.94 131.08 87.82C131.693 87.7 132.3 87.5133 132.9 87.26V90.56C132.326 90.76 131.72 90.9133 131.08 91.02C130.453 91.14 129.74 91.2 128.94 91.2ZM134.308 91V78.12H138.068V91H134.308ZM139.875 91V78.12H149.635V81H143.635V83.1H148.895V86.02H143.635V88.12H149.635V91H139.875ZM150.832 91V78.12H154.032L158.892 84.94V78.12H162.652V91H159.432L154.592 84.2V91H150.832ZM167.265 91V80.92H163.645V78.12H174.645V80.92H171.025V91H167.265Z" fill="white"/>
<path d="M66.1539 109V96.12H69.8139L73.0139 102.66L76.1939 96.12H79.8339V109H76.0739V102.56L74.0139 106.8H71.9939L69.9139 102.56V109H66.1539ZM81.2422 109L86.1822 96.12H90.1622L95.1022 109H91.1822L90.1022 106.26H86.2222L85.1622 109H81.2422ZM86.7222 103.56H89.6022L88.1622 99.78L86.7222 103.56ZM97.6263 109V98.92H94.0063V96.12H105.006V98.92H101.386V109H97.6263ZM105.998 109V96.12H115.758V99H109.758V101.1H115.018V104.02H109.758V106.12H115.758V109H105.998ZM116.955 109V96.12H123.655C124.708 96.12 125.568 96.3133 126.235 96.7C126.915 97.0867 127.421 97.6267 127.755 98.32C128.088 99 128.255 99.7933 128.255 100.7C128.255 101.567 128.035 102.333 127.595 103C127.168 103.653 126.595 104.153 125.875 104.5C126.021 104.62 126.148 104.767 126.255 104.94C126.361 105.1 126.481 105.327 126.615 105.62L128.095 109H124.175L122.815 105.9C122.708 105.66 122.575 105.493 122.415 105.4C122.268 105.293 122.055 105.24 121.775 105.24H120.715V109H116.955ZM120.715 102.36H122.695C123.241 102.36 123.661 102.22 123.955 101.94C124.261 101.647 124.415 101.233 124.415 100.7C124.415 99.5667 123.881 99 122.815 99H120.715V102.36ZM129.65 109V96.12H133.41V109H129.65ZM134.816 109L139.756 96.12H143.736L148.676 109H144.756L143.676 106.26H139.796L138.736 109H134.816ZM140.296 103.56H143.176L141.736 99.78L140.296 103.56ZM150.08 109V96.12H153.84V106.12H159.64V109H150.08Z" fill="white"/>
<path d="M93.561 122V114.916H96.63C97.3487 114.916 97.9537 115.037 98.445 115.279C98.9363 115.514 99.3103 115.895 99.567 116.423C99.8237 116.944 99.952 117.637 99.952 118.502C99.952 119.719 99.6697 120.607 99.105 121.164C98.5477 121.721 97.7227 122 96.63 122H93.561ZM95.332 120.636H96.388C96.7693 120.636 97.0883 120.581 97.345 120.471C97.609 120.354 97.807 120.141 97.939 119.833C98.0783 119.525 98.148 119.081 98.148 118.502C98.148 117.915 98.0857 117.464 97.961 117.149C97.8437 116.826 97.653 116.603 97.389 116.478C97.1323 116.346 96.7987 116.28 96.388 116.28H95.332V120.636ZM102.835 122V114.916H106.377C107.213 114.916 107.829 115.136 108.225 115.576C108.621 116.016 108.819 116.606 108.819 117.347C108.819 117.824 108.698 118.242 108.456 118.601C108.214 118.96 107.884 119.228 107.466 119.404C107.569 119.485 107.649 119.576 107.708 119.679C107.774 119.774 107.844 119.91 107.917 120.086L108.753 122H106.905L106.113 120.196C106.047 120.042 105.963 119.932 105.86 119.866C105.757 119.793 105.611 119.756 105.42 119.756H104.606V122H102.835ZM104.606 118.392H105.915C106.26 118.392 106.527 118.308 106.718 118.139C106.916 117.963 107.015 117.699 107.015 117.347C107.015 116.636 106.674 116.28 105.992 116.28H104.606V118.392ZM110.987 122L113.693 114.916H115.607L118.313 122H116.465L115.827 120.394H113.462L112.835 122H110.987ZM113.704 119.085H115.585L114.639 116.621L113.704 119.085ZM121.577 122L119.927 114.916H121.665L122.6 119.184L123.568 115.917V114.916H125.02L126.241 119.195L127.22 114.916H128.958L127.319 122H125.68L124.492 117.908L123.216 122H121.577Z" fill="white"/>
<path fill-rule="evenodd" clip-rule="evenodd" d="M80.8346 21.691C80.8815 20.1914 82.1107 19 83.6111 19H87.7777C89.2781 19 90.5073 20.1914 90.5541 21.691L90.5786 22.4722H91.9444C93.4785 22.4722 94.7222 23.7159 94.7222 25.25V26.9348C97.7501 26.2496 101.018 26.7073 103.792 29.0188C109.555 33.821 109.025 43.8876 102.185 49.3937C100.535 50.7224 99.2385 51.824 98.3457 52.959C98.142 53.218 97.9675 53.4685 97.8206 53.7138L100.636 54.0945C102.013 54.2808 103.041 55.457 103.041 56.8472V62.0556C103.041 63.5897 101.798 64.8333 100.263 64.8333H71.1253C69.5912 64.8333 68.3475 63.5897 68.3475 62.0556V56.8472C68.3475 55.457 69.3753 54.2808 70.753 54.0945L73.5682 53.7138C73.4213 53.4685 73.2468 53.218 73.0431 52.959C72.1503 51.824 70.8537 50.7224 69.2033 49.3937C62.3643 43.8876 61.834 33.821 67.5967 29.0188C70.3705 26.7073 73.6387 26.2496 76.6666 26.9348V25.25C76.6666 23.7159 77.9103 22.4722 79.4444 22.4722H80.8102L80.8346 21.691Z" fill="black" fill-opacity="0.21"/>
<path fill-rule="evenodd" clip-rule="evenodd" d="M83.6111 21.7778H87.7778L87.8863 25.2501H91.9444V29.4167H88.0165L88.2073 34.1341C88.2834 34.0444 88.3619 33.9564 88.4427 33.8705C92.2365 29.8383 97.8616 27.6926 102.014 31.1528C106.181 34.6251 106.181 42.6112 100.444 47.23C97.1937 49.8465 94.2829 52.3687 94.4263 56.0578L100.264 56.8473V62.0556H71.1254V56.8473L76.9626 56.0578C77.106 52.3687 74.1951 49.8464 70.9453 47.23C65.2083 42.6112 65.2083 34.6251 69.375 31.1528C73.5273 27.6926 79.1524 29.8383 82.9462 33.8705C83.027 33.9564 83.1054 34.0444 83.1816 34.1341L83.3724 29.4167H79.4444V25.2501H83.5026L83.6111 21.7778ZM79.6861 37.7314C82.2324 41.9022 82.5694 46.7778 82.5694 48.8981C81.2932 48.9004 76.4818 46.7837 73.9345 43.3088C72.1006 40.8072 71.6224 37.0955 73.1944 35.6546C74.7665 34.2136 78.0947 35.1247 79.6861 37.7314ZM91.7028 37.7314C89.1565 41.9022 88.8194 46.7778 88.8194 48.8981C90.0957 48.9004 94.9071 46.7837 97.4544 43.3088C99.2883 40.8072 99.7665 37.0955 98.1944 35.6546C96.6224 34.2136 93.2942 35.1247 91.7028 37.7314Z" fill="#F4F7FA"/>
<path fill-rule="evenodd" clip-rule="evenodd" d="M135.835 21.691C135.881 20.1914 137.111 19 138.611 19H142.778C144.278 19 145.507 20.1914 145.554 21.691L145.579 22.4722H146.944C148.479 22.4722 149.722 23.7159 149.722 25.25V26.9348C152.75 26.2496 156.018 26.7073 158.792 29.0188C164.555 33.821 164.025 43.8876 157.185 49.3937C155.535 50.7224 154.238 51.824 153.346 52.959C153.142 53.218 152.967 53.4685 152.821 53.7138L155.636 54.0945C157.013 54.2808 158.041 55.457 158.041 56.8472V62.0556C158.041 63.5897 156.798 64.8333 155.263 64.8333H126.125C124.591 64.8333 123.348 63.5897 123.348 62.0556V56.8472C123.348 55.457 124.375 54.2808 125.753 54.0945L128.568 53.7138C128.421 53.4685 128.247 53.218 128.043 52.959C127.15 51.824 125.854 50.7224 124.203 49.3937C117.364 43.8876 116.834 33.821 122.597 29.0188C125.371 26.7073 128.639 26.2496 131.667 26.9348V25.25C131.667 23.7159 132.91 22.4722 134.444 22.4722H135.81L135.835 21.691Z" fill="#F4F7FA"/>
<path fill-rule="evenodd" clip-rule="evenodd" d="M138.611 21.7778H142.778L142.886 25.2501H146.944V29.4167H143.016L143.207 34.1341C143.283 34.0444 143.362 33.9564 143.443 33.8705C147.237 29.8383 152.862 27.6926 157.014 31.1528C161.181 34.6251 161.181 42.6112 155.444 47.23C152.194 49.8465 149.283 52.3687 149.426 56.0578L155.264 56.8473V62.0556H126.125V56.8473L131.963 56.0578C132.106 52.3687 129.195 49.8464 125.945 47.23C120.208 42.6112 120.208 34.6251 124.375 31.1528C128.527 27.6926 134.152 29.8383 137.946 33.8705C138.027 33.9564 138.105 34.0444 138.182 34.1341L138.372 29.4167H134.444V25.2501H138.503L138.611 21.7778ZM134.686 37.7314C137.232 41.9022 137.569 46.7778 137.569 48.8981C136.293 48.9004 131.482 46.7837 128.934 43.3088C127.101 40.8072 126.622 37.0955 128.194 35.6546C129.767 34.2136 133.095 35.1247 134.686 37.7314ZM146.703 37.7314C144.156 41.9022 143.819 46.7778 143.819 48.8981C145.096 48.9004 149.907 46.7837 152.454 43.3088C154.288 40.8072 154.767 37.0955 153.194 35.6546C151.622 34.2136 148.294 35.1247 146.703 37.7314Z" fill="#2E2E2E"/>
</svg>
