<svg width="222" height="252" viewBox="0 0 222 252" fill="none" xmlns="http://www.w3.org/2000/svg">
<rect width="222" height="252" rx="10" fill="#323232" fill-opacity="0.96"/>
<path d="M59.3082 91V78.12H66.0082C67.0615 78.12 67.9215 78.3133 68.5882 78.7C69.2682 79.0867 69.7749 79.6267 70.1082 80.32C70.4415 81 70.6082 81.7933 70.6082 82.7C70.6082 83.5667 70.3882 84.3333 69.9482 85C69.5215 85.6533 68.9482 86.1533 68.2282 86.5C68.3749 86.62 68.5015 86.7667 68.6082 86.94C68.7149 87.1 68.8349 87.3267 68.9682 87.62L70.4482 91H66.5282L65.1682 87.9C65.0615 87.66 64.9282 87.4933 64.7682 87.4C64.6215 87.2933 64.4082 87.24 64.1282 87.24H63.0682V91H59.3082ZM63.0682 84.36H65.0482C65.5949 84.36 66.0149 84.22 66.3082 83.94C66.6149 83.6467 66.7682 83.2333 66.7682 82.7C66.7682 81.5667 66.2349 81 65.1682 81H63.0682V84.36ZM72.0035 91V78.12H81.7635V81H75.7635V83.1H81.0235V86.02H75.7635V88.12H81.7635V91H72.0035ZM82.9605 91V78.12H89.6005C90.6539 78.12 91.5205 78.3333 92.2005 78.76C92.8939 79.1733 93.4072 79.74 93.7405 80.46C94.0739 81.18 94.2405 81.98 94.2405 82.86C94.2405 83.7667 94.0472 84.5733 93.6605 85.28C93.2739 85.9867 92.7272 86.54 92.0205 86.94C91.3139 87.34 90.4805 87.54 89.5205 87.54H86.7205V91H82.9605ZM86.7205 84.66H88.6605C89.2472 84.66 89.6805 84.4933 89.9605 84.16C90.2539 83.8267 90.4005 83.3933 90.4005 82.86C90.4005 82.2867 90.2672 81.8333 90.0005 81.5C89.7339 81.1667 89.3205 81 88.7605 81H86.7205V84.66ZM95.2457 91V78.12H105.006V81H99.0057V83.1H104.266V86.02H99.0057V88.12H105.006V91H95.2457ZM109.023 91V80.92H105.403V78.12H116.403V80.92H112.783V91H109.023ZM117.394 91V78.12H121.154V91H117.394ZM125.781 91V80.92H122.161V78.12H133.161V80.92H129.541V91H125.781ZM134.152 91V78.12H137.912V91H134.152ZM145.898 91.2C143.765 91.2 142.132 90.68 140.998 89.64C139.878 88.6 139.318 86.92 139.318 84.6C139.318 83 139.572 81.7133 140.078 80.74C140.585 79.7533 141.325 79.04 142.298 78.6C143.285 78.1467 144.485 77.92 145.898 77.92C147.312 77.92 148.505 78.1467 149.478 78.6C150.465 79.04 151.212 79.7533 151.718 80.74C152.225 81.7133 152.478 83 152.478 84.6C152.478 86.92 151.912 88.6 150.778 89.64C149.645 90.68 148.018 91.2 145.898 91.2ZM145.898 88C146.858 88 147.552 87.7333 147.978 87.2C148.418 86.6533 148.638 85.7867 148.638 84.6C148.638 83.3333 148.418 82.44 147.978 81.92C147.552 81.3867 146.858 81.12 145.898 81.12C144.938 81.12 144.238 81.3867 143.798 81.92C143.372 82.44 143.158 83.3333 143.158 84.6C143.158 85.7867 143.372 86.6533 143.798 87.2C144.238 87.7333 144.938 88 145.898 88ZM153.879 91V78.12H157.079L161.939 84.94V78.12H165.699V91H162.479L157.639 84.2V91H153.879Z" fill="white"/>
<path d="M93.561 103V95.916H96.63C97.3487 95.916 97.9537 96.037 98.445 96.279C98.9363 96.5137 99.3103 96.895 99.567 97.423C99.8237 97.9437 99.952 98.6367 99.952 99.502C99.952 100.719 99.6697 101.607 99.105 102.164C98.5477 102.721 97.7227 103 96.63 103H93.561ZM95.332 101.636H96.388C96.7693 101.636 97.0883 101.581 97.345 101.471C97.609 101.354 97.807 101.141 97.939 100.833C98.0783 100.525 98.148 100.081 98.148 99.502C98.148 98.9153 98.0857 98.4643 97.961 98.149C97.8437 97.8263 97.653 97.6027 97.389 97.478C97.1323 97.346 96.7987 97.28 96.388 97.28H95.332V101.636ZM102.835 103V95.916H106.377C107.213 95.916 107.829 96.136 108.225 96.576C108.621 97.016 108.819 97.6063 108.819 98.347C108.819 98.8237 108.698 99.2417 108.456 99.601C108.214 99.9603 107.884 100.228 107.466 100.404C107.569 100.485 107.649 100.576 107.708 100.679C107.774 100.774 107.844 100.91 107.917 101.086L108.753 103H106.905L106.113 101.196C106.047 101.042 105.963 100.932 105.86 100.866C105.757 100.793 105.611 100.756 105.42 100.756H104.606V103H102.835ZM104.606 99.392H105.915C106.26 99.392 106.527 99.3077 106.718 99.139C106.916 98.963 107.015 98.699 107.015 98.347C107.015 97.6357 106.674 97.28 105.992 97.28H104.606V99.392ZM110.987 103L113.693 95.916H115.607L118.313 103H116.465L115.827 101.394H113.462L112.835 103H110.987ZM113.704 100.085H115.585L114.639 97.621L113.704 100.085ZM121.577 103L119.927 95.916H121.665L122.6 100.184L123.568 96.917V95.916H125.02L126.241 100.195L127.22 95.916H128.958L127.319 103H125.68L124.492 98.908L123.216 103H121.577Z" fill="white"/>
<path fill-rule="evenodd" clip-rule="evenodd" d="M80.8346 21.691C80.8815 20.1914 82.1107 19 83.6111 19H87.7777C89.2781 19 90.5073 20.1914 90.5541 21.691L90.5786 22.4722H91.9444C93.4785 22.4722 94.7222 23.7159 94.7222 25.25V26.9348C97.7501 26.2496 101.018 26.7073 103.792 29.0188C109.555 33.821 109.025 43.8876 102.185 49.3937C100.535 50.7224 99.2385 51.824 98.3457 52.959C98.142 53.218 97.9675 53.4685 97.8206 53.7138L100.636 54.0945C102.013 54.2808 103.041 55.457 103.041 56.8472V62.0556C103.041 63.5897 101.798 64.8333 100.263 64.8333H71.1253C69.5912 64.8333 68.3475 63.5897 68.3475 62.0556V56.8472C68.3475 55.457 69.3753 54.2808 70.753 54.0945L73.5682 53.7138C73.4213 53.4685 73.2468 53.218 73.0431 52.959C72.1503 51.824 70.8537 50.7224 69.2033 49.3937C62.3643 43.8876 61.834 33.821 67.5967 29.0188C70.3705 26.7073 73.6387 26.2496 76.6666 26.9348V25.25C76.6666 23.7159 77.9103 22.4722 79.4444 22.4722H80.8102L80.8346 21.691Z" fill="black" fill-opacity="0.21"/>
<path fill-rule="evenodd" clip-rule="evenodd" d="M83.6111 21.7778H87.7778L87.8863 25.2501H91.9444V29.4167H88.0165L88.2073 34.1341C88.2834 34.0444 88.3619 33.9564 88.4427 33.8705C92.2365 29.8383 97.8616 27.6926 102.014 31.1528C106.181 34.6251 106.181 42.6112 100.444 47.23C97.1937 49.8465 94.2829 52.3687 94.4263 56.0578L100.264 56.8473V62.0556H71.1254V56.8473L76.9626 56.0578C77.106 52.3687 74.1951 49.8464 70.9453 47.23C65.2083 42.6112 65.2083 34.6251 69.375 31.1528C73.5273 27.6926 79.1524 29.8383 82.9462 33.8705C83.027 33.9564 83.1054 34.0444 83.1816 34.1341L83.3724 29.4167H79.4444V25.2501H83.5026L83.6111 21.7778ZM79.6861 37.7314C82.2324 41.9022 82.5694 46.7778 82.5694 48.8981C81.2932 48.9004 76.4818 46.7837 73.9345 43.3088C72.1006 40.8072 71.6224 37.0955 73.1944 35.6546C74.7665 34.2136 78.0947 35.1247 79.6861 37.7314ZM91.7028 37.7314C89.1565 41.9022 88.8194 46.7778 88.8194 48.8981C90.0957 48.9004 94.9071 46.7837 97.4544 43.3088C99.2883 40.8072 99.7665 37.0955 98.1944 35.6546C96.6224 34.2136 93.2942 35.1247 91.7028 37.7314Z" fill="#F4F7FA"/>
<path fill-rule="evenodd" clip-rule="evenodd" d="M135.835 21.691C135.881 20.1914 137.111 19 138.611 19H142.778C144.278 19 145.507 20.1914 145.554 21.691L145.579 22.4722H146.944C148.479 22.4722 149.722 23.7159 149.722 25.25V26.9348C152.75 26.2496 156.018 26.7073 158.792 29.0188C164.555 33.821 164.025 43.8876 157.185 49.3937C155.535 50.7224 154.238 51.824 153.346 52.959C153.142 53.218 152.967 53.4685 152.821 53.7138L155.636 54.0945C157.013 54.2808 158.041 55.457 158.041 56.8472V62.0556C158.041 63.5897 156.798 64.8333 155.263 64.8333H126.125C124.591 64.8333 123.348 63.5897 123.348 62.0556V56.8472C123.348 55.457 124.375 54.2808 125.753 54.0945L128.568 53.7138C128.421 53.4685 128.247 53.218 128.043 52.959C127.15 51.824 125.854 50.7224 124.203 49.3937C117.364 43.8876 116.834 33.821 122.597 29.0188C125.371 26.7073 128.639 26.2496 131.667 26.9348V25.25C131.667 23.7159 132.91 22.4722 134.444 22.4722H135.81L135.835 21.691Z" fill="#F4F7FA"/>
<path fill-rule="evenodd" clip-rule="evenodd" d="M138.611 21.7778H142.778L142.886 25.2501H146.944V29.4167H143.016L143.207 34.1341C143.283 34.0444 143.362 33.9564 143.443 33.8705C147.237 29.8383 152.862 27.6926 157.014 31.1528C161.181 34.6251 161.181 42.6112 155.444 47.23C152.194 49.8465 149.283 52.3687 149.426 56.0578L155.264 56.8473V62.0556H126.125V56.8473L131.963 56.0578C132.106 52.3687 129.195 49.8464 125.945 47.23C120.208 42.6112 120.208 34.6251 124.375 31.1528C128.527 27.6926 134.152 29.8383 137.946 33.8705C138.027 33.9564 138.105 34.0444 138.182 34.1341L138.372 29.4167H134.444V25.2501H138.503L138.611 21.7778ZM134.686 37.7314C137.232 41.9022 137.569 46.7778 137.569 48.8981C136.293 48.9004 131.482 46.7837 128.934 43.3088C127.101 40.8072 126.622 37.0955 128.194 35.6546C129.767 34.2136 133.095 35.1247 134.686 37.7314ZM146.703 37.7314C144.156 41.9022 143.819 46.7778 143.819 48.8981C145.096 48.9004 149.907 46.7837 152.454 43.3088C154.288 40.8072 154.767 37.0955 153.194 35.6546C151.622 34.2136 148.294 35.1247 146.703 37.7314Z" fill="#2E2E2E"/>
</svg>
