<svg width="222" height="252" viewBox="0 0 222 252" fill="none" xmlns="http://www.w3.org/2000/svg">
<rect width="222" height="252" rx="10" fill="#323232" fill-opacity="0.96"/>
<path d="M63.12 91.2C62.2533 91.2 61.4333 91.1333 60.66 91C59.8867 90.8533 59.2267 90.6533 58.68 90.4V87.3C59.28 87.58 59.9467 87.8067 60.68 87.98C61.4133 88.1533 62.1 88.24 62.74 88.24C63.4067 88.24 63.9067 88.1867 64.24 88.08C64.5867 87.96 64.76 87.7 64.76 87.3C64.76 87.02 64.66 86.8 64.46 86.64C64.2733 86.48 63.9733 86.3333 63.56 86.2C63.16 86.0667 62.6333 85.9 61.98 85.7C61.1133 85.42 60.4267 85.1133 59.92 84.78C59.4133 84.4467 59.0467 84.04 58.82 83.56C58.6067 83.08 58.5 82.4933 58.5 81.8C58.5 80.5333 58.9467 79.5733 59.84 78.92C60.7467 78.2533 62.0867 77.92 63.86 77.92C64.5667 77.92 65.2933 77.98 66.04 78.1C66.8 78.22 67.4133 78.3533 67.88 78.5V81.62C67.2533 81.3667 66.6533 81.1867 66.08 81.08C65.5067 80.9733 64.9667 80.92 64.46 80.92C63.8733 80.92 63.3733 80.9667 62.96 81.06C62.5467 81.1533 62.34 81.3933 62.34 81.78C62.34 82.1133 62.5133 82.36 62.86 82.52C63.22 82.6667 63.8533 82.86 64.76 83.1C65.8133 83.38 66.6133 83.72 67.16 84.12C67.72 84.52 68.1 84.9867 68.3 85.52C68.5 86.04 68.6 86.6333 68.6 87.3C68.6 88.4733 68.1467 89.42 67.24 90.14C66.3333 90.8467 64.96 91.2 63.12 91.2ZM72.8138 91V80.92H69.1938V78.12H80.1938V80.92H76.5738V91H72.8138ZM79.0859 91L84.0259 78.12H88.0059L92.9459 91H89.0259L87.9459 88.26H84.0659L83.0059 91H79.0859ZM84.5659 85.56H87.4459L86.0059 81.78L84.5659 85.56ZM94.3492 91V78.12H98.1092V88.12H103.909V91H94.3492ZM104.916 91V78.12H114.676V81H108.676V83.1H113.936V86.02H108.676V88.12H114.676V91H104.916ZM115.873 91V78.12H119.533L122.733 84.66L125.913 78.12H129.553V91H125.793V84.56L123.733 88.8H121.713L119.633 84.56V91H115.873ZM130.961 91L135.901 78.12H139.881L144.821 91H140.901L139.821 88.26H135.941L134.881 91H130.961ZM136.441 85.56H139.321L137.881 81.78L136.441 85.56ZM147.345 91V80.92H143.725V78.12H154.725V80.92H151.105V91H147.345ZM155.716 91V78.12H165.476V81H159.476V83.1H164.736V86.02H159.476V88.12H165.476V91H155.716Z" fill="white"/>
<path d="M93.561 103V95.916H96.63C97.3487 95.916 97.9537 96.037 98.445 96.279C98.9363 96.5137 99.3103 96.895 99.567 97.423C99.8237 97.9437 99.952 98.6367 99.952 99.502C99.952 100.719 99.6697 101.607 99.105 102.164C98.5477 102.721 97.7227 103 96.63 103H93.561ZM95.332 101.636H96.388C96.7693 101.636 97.0883 101.581 97.345 101.471C97.609 101.354 97.807 101.141 97.939 100.833C98.0783 100.525 98.148 100.081 98.148 99.502C98.148 98.9153 98.0857 98.4643 97.961 98.149C97.8437 97.8263 97.653 97.6027 97.389 97.478C97.1323 97.346 96.7987 97.28 96.388 97.28H95.332V101.636ZM102.835 103V95.916H106.377C107.213 95.916 107.829 96.136 108.225 96.576C108.621 97.016 108.819 97.6063 108.819 98.347C108.819 98.8237 108.698 99.2417 108.456 99.601C108.214 99.9603 107.884 100.228 107.466 100.404C107.569 100.485 107.649 100.576 107.708 100.679C107.774 100.774 107.844 100.91 107.917 101.086L108.753 103H106.905L106.113 101.196C106.047 101.042 105.963 100.932 105.86 100.866C105.757 100.793 105.611 100.756 105.42 100.756H104.606V103H102.835ZM104.606 99.392H105.915C106.26 99.392 106.527 99.3077 106.718 99.139C106.916 98.963 107.015 98.699 107.015 98.347C107.015 97.6357 106.674 97.28 105.992 97.28H104.606V99.392ZM110.987 103L113.693 95.916H115.607L118.313 103H116.465L115.827 101.394H113.462L112.835 103H110.987ZM113.704 100.085H115.585L114.639 97.621L113.704 100.085ZM121.577 103L119.927 95.916H121.665L122.6 100.184L123.568 96.917V95.916H125.02L126.241 100.195L127.22 95.916H128.958L127.319 103H125.68L124.492 98.908L123.216 103H121.577Z" fill="white"/>
<path fill-rule="evenodd" clip-rule="evenodd" d="M80.8346 21.691C80.8815 20.1914 82.1107 19 83.6111 19H87.7777C89.2781 19 90.5073 20.1914 90.5541 21.691L90.5786 22.4722H91.9444C93.4785 22.4722 94.7222 23.7159 94.7222 25.25V26.9348C97.7501 26.2496 101.018 26.7073 103.792 29.0188C109.555 33.821 109.025 43.8876 102.185 49.3937C100.535 50.7224 99.2385 51.824 98.3457 52.959C98.142 53.218 97.9675 53.4685 97.8206 53.7138L100.636 54.0945C102.013 54.2808 103.041 55.457 103.041 56.8472V62.0556C103.041 63.5897 101.798 64.8333 100.263 64.8333H71.1253C69.5912 64.8333 68.3475 63.5897 68.3475 62.0556V56.8472C68.3475 55.457 69.3753 54.2808 70.753 54.0945L73.5682 53.7138C73.4213 53.4685 73.2468 53.218 73.0431 52.959C72.1503 51.824 70.8537 50.7224 69.2033 49.3937C62.3643 43.8876 61.834 33.821 67.5967 29.0188C70.3705 26.7073 73.6387 26.2496 76.6666 26.9348V25.25C76.6666 23.7159 77.9103 22.4722 79.4444 22.4722H80.8102L80.8346 21.691Z" fill="black" fill-opacity="0.21"/>
<path fill-rule="evenodd" clip-rule="evenodd" d="M83.6111 21.7778H87.7778L87.8863 25.2501H91.9444V29.4167H88.0165L88.2073 34.1341C88.2834 34.0444 88.3619 33.9564 88.4427 33.8705C92.2365 29.8383 97.8616 27.6926 102.014 31.1528C106.181 34.6251 106.181 42.6112 100.444 47.23C97.1937 49.8465 94.2829 52.3687 94.4263 56.0578L100.264 56.8473V62.0556H71.1254V56.8473L76.9626 56.0578C77.106 52.3687 74.1951 49.8464 70.9453 47.23C65.2083 42.6112 65.2083 34.6251 69.375 31.1528C73.5273 27.6926 79.1524 29.8383 82.9462 33.8705C83.027 33.9564 83.1054 34.0444 83.1816 34.1341L83.3724 29.4167H79.4444V25.2501H83.5026L83.6111 21.7778ZM79.6861 37.7314C82.2324 41.9022 82.5694 46.7778 82.5694 48.8981C81.2932 48.9004 76.4818 46.7837 73.9345 43.3088C72.1006 40.8072 71.6224 37.0955 73.1944 35.6546C74.7665 34.2136 78.0947 35.1247 79.6861 37.7314ZM91.7028 37.7314C89.1565 41.9022 88.8194 46.7778 88.8194 48.8981C90.0957 48.9004 94.9071 46.7837 97.4544 43.3088C99.2883 40.8072 99.7665 37.0955 98.1944 35.6546C96.6224 34.2136 93.2942 35.1247 91.7028 37.7314Z" fill="#F4F7FA"/>
<path fill-rule="evenodd" clip-rule="evenodd" d="M135.835 21.691C135.881 20.1914 137.111 19 138.611 19H142.778C144.278 19 145.507 20.1914 145.554 21.691L145.579 22.4722H146.944C148.479 22.4722 149.722 23.7159 149.722 25.25V26.9348C152.75 26.2496 156.018 26.7073 158.792 29.0188C164.555 33.821 164.025 43.8876 157.185 49.3937C155.535 50.7224 154.238 51.824 153.346 52.959C153.142 53.218 152.967 53.4685 152.821 53.7138L155.636 54.0945C157.013 54.2808 158.041 55.457 158.041 56.8472V62.0556C158.041 63.5897 156.798 64.8333 155.263 64.8333H126.125C124.591 64.8333 123.348 63.5897 123.348 62.0556V56.8472C123.348 55.457 124.375 54.2808 125.753 54.0945L128.568 53.7138C128.421 53.4685 128.247 53.218 128.043 52.959C127.15 51.824 125.854 50.7224 124.203 49.3937C117.364 43.8876 116.834 33.821 122.597 29.0188C125.371 26.7073 128.639 26.2496 131.667 26.9348V25.25C131.667 23.7159 132.91 22.4722 134.444 22.4722H135.81L135.835 21.691Z" fill="#F4F7FA"/>
<path fill-rule="evenodd" clip-rule="evenodd" d="M138.611 21.7778H142.778L142.886 25.2501H146.944V29.4167H143.016L143.207 34.1341C143.283 34.0444 143.362 33.9564 143.443 33.8705C147.237 29.8383 152.862 27.6926 157.014 31.1528C161.181 34.6251 161.181 42.6112 155.444 47.23C152.194 49.8465 149.283 52.3687 149.426 56.0578L155.264 56.8473V62.0556H126.125V56.8473L131.963 56.0578C132.106 52.3687 129.195 49.8464 125.945 47.23C120.208 42.6112 120.208 34.6251 124.375 31.1528C128.527 27.6926 134.152 29.8383 137.946 33.8705C138.027 33.9564 138.105 34.0444 138.182 34.1341L138.372 29.4167H134.444V25.2501H138.503L138.611 21.7778ZM134.686 37.7314C137.232 41.9022 137.569 46.7778 137.569 48.8981C136.293 48.9004 131.482 46.7837 128.934 43.3088C127.101 40.8072 126.622 37.0955 128.194 35.6546C129.767 34.2136 133.095 35.1247 134.686 37.7314ZM146.703 37.7314C144.156 41.9022 143.819 46.7778 143.819 48.8981C145.096 48.9004 149.907 46.7837 152.454 43.3088C154.288 40.8072 154.767 37.0955 153.194 35.6546C151.622 34.2136 148.294 35.1247 146.703 37.7314Z" fill="#2E2E2E"/>
</svg>
