<svg width="209" height="96" viewBox="0 0 209 96" fill="none" xmlns="http://www.w3.org/2000/svg">
<path d="M5.60805 90.14C4.12405 90.14 2.99938 89.734 2.23405 88.922C1.47805 88.11 1.10005 87.0133 1.10005 85.632C1.10005 84.6427 1.25871 83.7933 1.57605 83.084C1.90271 82.3653 2.39738 81.8147 3.06005 81.432C3.72271 81.04 4.56738 80.844 5.59405 80.844C6.11671 80.844 6.59271 80.886 7.02205 80.97C7.46071 81.0447 7.86671 81.1473 8.24005 81.278V82.608C7.86671 82.4587 7.46538 82.3467 7.03605 82.272C6.61605 82.188 6.17271 82.146 5.70605 82.146C4.58605 82.146 3.79271 82.4447 3.32605 83.042C2.86871 83.6393 2.64005 84.5027 2.64005 85.632C2.64005 86.6867 2.89205 87.4893 3.39605 88.04C3.90005 88.5813 4.67938 88.852 5.73405 88.852C6.16338 88.852 6.59271 88.8193 7.02205 88.754C7.46071 88.6793 7.87138 88.5673 8.25405 88.418V89.762C7.88071 89.8833 7.47471 89.9767 7.03605 90.042C6.60671 90.1073 6.13071 90.14 5.60805 90.14ZM9.73356 90V80.984H11.2596V84.904H15.5996V80.984H17.1256V90H15.5996V86.08H11.2596V90H9.73356ZM18.8937 90V80.984H25.1797V82.174H20.4197V84.904H24.6617V86.08H20.4197V88.824H25.1797V90H18.8937ZM29.0475 90.14C27.8809 90.14 26.9429 89.9907 26.2335 89.692V88.348C26.6349 88.4973 27.0642 88.6187 27.5215 88.712C27.9882 88.8053 28.4502 88.852 28.9075 88.852C29.6262 88.852 30.1629 88.768 30.5175 88.6C30.8815 88.432 31.0635 88.096 31.0635 87.592C31.0635 87.284 30.9889 87.0367 30.8395 86.85C30.6902 86.6633 30.4429 86.5047 30.0975 86.374C29.7522 86.234 29.2762 86.0893 28.6695 85.94C27.6989 85.688 27.0175 85.3707 26.6255 84.988C26.2335 84.596 26.0375 84.0593 26.0375 83.378C26.0375 82.5847 26.3269 81.964 26.9055 81.516C27.4842 81.068 28.3475 80.844 29.4955 80.844C30.0182 80.844 30.5082 80.8813 30.9655 80.956C31.4322 81.0307 31.7962 81.1147 32.0575 81.208V82.552C31.3482 82.2813 30.5642 82.146 29.7055 82.146C29.0335 82.146 28.5109 82.2347 28.1375 82.412C27.7642 82.5893 27.5775 82.9113 27.5775 83.378C27.5775 83.6487 27.6429 83.868 27.7735 84.036C27.9042 84.204 28.1282 84.3487 28.4455 84.47C28.7722 84.5913 29.2202 84.7267 29.7895 84.876C30.5269 85.0627 31.0962 85.2867 31.4975 85.548C31.9082 85.8 32.1929 86.0987 32.3515 86.444C32.5195 86.78 32.6035 87.1627 32.6035 87.592C32.6035 88.3853 32.3095 89.0107 31.7215 89.468C31.1335 89.916 30.2422 90.14 29.0475 90.14ZM36.3893 90.14C35.2227 90.14 34.2847 89.9907 33.5753 89.692V88.348C33.9767 88.4973 34.406 88.6187 34.8633 88.712C35.33 88.8053 35.792 88.852 36.2493 88.852C36.968 88.852 37.5047 88.768 37.8593 88.6C38.2233 88.432 38.4053 88.096 38.4053 87.592C38.4053 87.284 38.3307 87.0367 38.1813 86.85C38.032 86.6633 37.7847 86.5047 37.4393 86.374C37.094 86.234 36.618 86.0893 36.0113 85.94C35.0407 85.688 34.3593 85.3707 33.9673 84.988C33.5753 84.596 33.3793 84.0593 33.3793 83.378C33.3793 82.5847 33.6687 81.964 34.2473 81.516C34.826 81.068 35.6893 80.844 36.8373 80.844C37.36 80.844 37.85 80.8813 38.3073 80.956C38.774 81.0307 39.138 81.1147 39.3993 81.208V82.552C38.69 82.2813 37.906 82.146 37.0473 82.146C36.3753 82.146 35.8527 82.2347 35.4793 82.412C35.106 82.5893 34.9193 82.9113 34.9193 83.378C34.9193 83.6487 34.9847 83.868 35.1153 84.036C35.246 84.204 35.47 84.3487 35.7873 84.47C36.114 84.5913 36.562 84.7267 37.1313 84.876C37.8687 85.0627 38.438 85.2867 38.8393 85.548C39.25 85.8 39.5347 86.0987 39.6933 86.444C39.8613 86.78 39.9453 87.1627 39.9453 87.592C39.9453 88.3853 39.6513 89.0107 39.0633 89.468C38.4753 89.916 37.584 90.14 36.3893 90.14ZM44.3855 90L47.8295 80.984H49.5375L52.9535 90H51.3855L50.4895 87.676H46.8635L45.9675 90H44.3855ZM47.1015 86.5H50.2375L48.6695 82.37L47.1015 86.5ZM54.4543 90V80.984H58.4723C59.1629 80.984 59.7323 81.1147 60.1803 81.376C60.6283 81.6373 60.9596 81.9967 61.1743 82.454C61.3889 82.902 61.4963 83.4153 61.4963 83.994C61.4963 84.89 61.2163 85.6087 60.6563 86.15C60.1056 86.6913 59.3589 86.962 58.4163 86.962H55.9803V90H54.4543ZM55.9803 85.758H58.1363C58.7429 85.758 59.2003 85.5993 59.5083 85.282C59.8163 84.9647 59.9703 84.5353 59.9703 83.994C59.9703 83.4153 59.8209 82.9673 59.5223 82.65C59.2329 82.3327 58.7943 82.174 58.2063 82.174H55.9803V85.758ZM62.7121 90V80.984H66.7301C67.4207 80.984 67.9901 81.1147 68.4381 81.376C68.8861 81.6373 69.2174 81.9967 69.4321 82.454C69.6467 82.902 69.7541 83.4153 69.7541 83.994C69.7541 84.89 69.4741 85.6087 68.9141 86.15C68.3634 86.6913 67.6167 86.962 66.6741 86.962H64.2381V90H62.7121ZM64.2381 85.758H66.3941C67.0007 85.758 67.4581 85.5993 67.7661 85.282C68.0741 84.9647 68.2281 84.5353 68.2281 83.994C68.2281 83.4153 68.0787 82.9673 67.7801 82.65C67.4907 82.3327 67.0521 82.174 66.4641 82.174H64.2381V85.758ZM70.9699 90V80.984H72.4959V88.824H77.1159V90H70.9699ZM78.3254 90V80.984H79.8514V90H78.3254ZM85.8483 90.14C84.3643 90.14 83.2396 89.734 82.4743 88.922C81.7183 88.11 81.3403 87.0133 81.3403 85.632C81.3403 84.6427 81.4989 83.7933 81.8163 83.084C82.1429 82.3653 82.6376 81.8147 83.3003 81.432C83.9629 81.04 84.8076 80.844 85.8343 80.844C86.3569 80.844 86.8329 80.886 87.2623 80.97C87.7009 81.0447 88.1069 81.1473 88.4803 81.278V82.608C88.1069 82.4587 87.7056 82.3467 87.2763 82.272C86.8563 82.188 86.4129 82.146 85.9463 82.146C84.8263 82.146 84.0329 82.4447 83.5663 83.042C83.1089 83.6393 82.8803 84.5027 82.8803 85.632C82.8803 86.6867 83.1323 87.4893 83.6363 88.04C84.1403 88.5813 84.9196 88.852 85.9743 88.852C86.4036 88.852 86.8329 88.8193 87.2623 88.754C87.7009 88.6793 88.1116 88.5673 88.4943 88.418V89.762C88.1209 89.8833 87.7149 89.9767 87.2763 90.042C86.8469 90.1073 86.3709 90.14 85.8483 90.14ZM89.1473 90L92.5913 80.984H94.2993L97.7153 90H96.1473L95.2513 87.676H91.6253L90.7293 90H89.1473ZM91.8633 86.5H94.9993L93.4313 82.37L91.8633 86.5ZM100.365 90V82.174H97.4805V80.984H104.761V82.174H101.891V90H100.365ZM105.984 90V80.984H107.51V90H105.984ZM113.268 90.14C111.84 90.14 110.772 89.7667 110.062 89.02C109.353 88.264 108.998 87.0973 108.998 85.52C108.998 83.8773 109.353 82.6873 110.062 81.95C110.772 81.2127 111.84 80.844 113.268 80.844C114.706 80.844 115.774 81.2127 116.474 81.95C117.184 82.6873 117.538 83.8773 117.538 85.52C117.538 87.0973 117.184 88.264 116.474 89.02C115.774 89.7667 114.706 90.14 113.268 90.14ZM113.268 88.852C114.211 88.852 114.902 88.5953 115.34 88.082C115.788 87.5593 116.012 86.7053 116.012 85.52C116.012 84.2693 115.788 83.3967 115.34 82.902C114.902 82.398 114.211 82.146 113.268 82.146C112.335 82.146 111.644 82.398 111.196 82.902C110.758 83.3967 110.538 84.2693 110.538 85.52C110.538 86.7053 110.758 87.5593 111.196 88.082C111.644 88.5953 112.335 88.852 113.268 88.852ZM119.027 90V80.984H120.371L125.075 87.62V80.984H126.587V90H125.243L120.553 83.378V90H119.027ZM131.325 90L134.769 80.984H136.477L139.893 90H138.325L137.429 87.676H133.803L132.907 90H131.325ZM134.041 86.5H137.177L135.609 82.37L134.041 86.5ZM141.394 90V80.984H142.738L147.442 87.62V80.984H148.954V90H147.61L142.92 83.378V90H141.394ZM150.732 90V80.984H154.386C155.72 80.984 156.71 81.3387 157.354 82.048C157.998 82.748 158.32 83.9147 158.32 85.548C158.32 87.088 158.002 88.2173 157.368 88.936C156.733 89.6453 155.739 90 154.386 90H150.732ZM152.258 88.824H154.148C154.736 88.824 155.226 88.74 155.618 88.572C156.01 88.3947 156.304 88.068 156.5 87.592C156.696 87.116 156.794 86.4347 156.794 85.548C156.794 84.6613 156.705 83.9753 156.528 83.49C156.35 83.0047 156.066 82.664 155.674 82.468C155.291 82.272 154.782 82.174 154.148 82.174H152.258V88.824ZM163.05 90V80.984H169.336V82.174H164.576V84.904H168.818V86.08H164.576V88.824H169.336V90H163.05ZM170.747 90V80.984H172.091L176.795 87.62V80.984H178.307V90H176.963L172.273 83.378V90H170.747ZM184.285 90.14C182.801 90.14 181.681 89.7387 180.925 88.936C180.178 88.1333 179.805 87.046 179.805 85.674C179.805 84.6847 179.968 83.8307 180.295 83.112C180.622 82.384 181.116 81.824 181.779 81.432C182.451 81.04 183.3 80.844 184.327 80.844C184.859 80.844 185.34 80.8813 185.769 80.956C186.208 81.0213 186.618 81.1193 187.001 81.25V82.566C186.236 82.286 185.386 82.146 184.453 82.146C183.305 82.146 182.498 82.4493 182.031 83.056C181.574 83.6627 181.345 84.5353 181.345 85.674C181.345 86.71 181.588 87.4987 182.073 88.04C182.558 88.5813 183.31 88.852 184.327 88.852C185.13 88.852 185.778 88.7587 186.273 88.572V86.052H184.019V85.058H187.575V89.398C187.286 89.5847 186.87 89.7573 186.329 89.916C185.797 90.0653 185.116 90.14 184.285 90.14ZM189.054 90V80.984H190.58V90H189.054ZM192.349 90V80.984H193.693L198.397 87.62V80.984H199.909V90H198.565L193.875 83.378V90H192.349ZM201.687 90V80.984H207.973V82.174H203.213V84.904H207.455V86.08H203.213V88.824H207.973V90H201.687Z" fill="white"/>
<path d="M59.5655 71.64C51.7575 71.64 45.8268 69.8267 41.7735 66.2C37.7628 62.5733 35.7575 57.3467 35.7575 50.52C35.7575 43.5227 37.7415 38.2107 41.7095 34.584C45.6775 30.9573 51.5868 29.144 59.4375 29.144C62.0828 29.144 64.4082 29.336 66.4135 29.72C68.4188 30.104 70.3602 30.6587 72.2375 31.384V43.352C70.2748 42.4987 68.3335 41.8587 66.4135 41.432C64.5362 41.0053 62.5308 40.792 60.3975 40.792C56.9415 40.792 54.2962 41.5387 52.4615 43.032C50.6695 44.4827 49.7735 46.9787 49.7735 50.52C49.7735 53.976 50.7122 56.4293 52.5895 57.88C54.5095 59.288 57.1548 59.992 60.5255 59.992C62.6162 59.992 64.6215 59.8 66.5415 59.416C68.4615 58.9893 70.4028 58.3493 72.3655 57.496V69.528C70.4882 70.2107 68.5255 70.7227 66.4775 71.064C64.4722 71.448 62.1682 71.64 59.5655 71.64ZM82.655 71L98.463 29.784H112.863L128.735 71H114.399L111.199 62.808H100.127L96.991 71H82.655ZM101.791 53.208H109.535L105.631 43.224L101.791 53.208ZM141.52 71V29.784H173.584V39.96H155.28V45.208H171.216V55.64H155.28V60.824H173.584V71H141.52Z" fill="white"/>
</svg>
