<svg width="50" height="50" viewBox="0 0 50 50" fill="none" xmlns="http://www.w3.org/2000/svg">
<path d="M12.5 6.94446C12.5 7.63011 12.6103 8.28981 12.8141 8.90685L11.443 9.55004C10.3063 8.37177 8.71096 7.63891 6.94446 7.63891C3.49268 7.63891 0.694458 10.4371 0.694458 13.8889C0.694458 16.9658 2.91793 19.5235 5.84578 20.0427L9.1389 31.3334C9.20764 31.569 9.30732 31.7946 9.43534 32.0041L11.3333 35.1099L11.3217 35.1119C9.99483 35.3467 9.02779 36.4998 9.02779 37.8472V43.0556C9.02779 44.5897 10.2714 45.8333 11.8056 45.8333L38.2479 45.8333C38.9846 45.8333 39.6911 45.5407 40.2121 45.0198C40.733 44.4988 41.0257 43.7923 41.0257 43.0556V37.8472C41.0257 36.4982 40.0564 35.3442 38.7277 35.1112L38.6719 35.1014L40.5647 32.0041C40.6927 31.7946 40.7924 31.569 40.8611 31.3334L44.1542 20.0427C47.0821 19.5235 49.3056 16.9658 49.3056 13.8889C49.3056 10.4371 46.5074 7.63891 43.0556 7.63891C41.2868 7.63891 39.6897 8.37362 38.5527 9.55449L37.184 8.91244C37.3891 8.2938 37.5 7.63218 37.5 6.94446C37.5 3.49268 34.7018 0.694458 31.25 0.694458C27.7982 0.694458 25 3.49268 25 6.94446C25 3.49268 22.2018 0.694458 18.75 0.694458C15.2982 0.694458 12.5 3.49268 12.5 6.94446Z" fill="#34364C"/>
<path d="M19.9964 10.1863C21.2983 9.68539 22.2222 8.42282 22.2222 6.94445C22.2222 5.0268 20.6677 3.47223 18.75 3.47223C16.8324 3.47223 15.2778 5.0268 15.2778 6.94445C15.2778 8.71657 16.6053 10.1786 18.3202 10.3903L16.7717 22.9167L9.30709 16.4334C9.98963 15.7993 10.4167 14.894 10.4167 13.8889C10.4167 11.9712 8.86211 10.4167 6.94445 10.4167C5.0268 10.4167 3.47223 11.9712 3.47223 13.8889C3.47223 15.8066 5.0268 17.3611 6.94445 17.3611C7.28203 17.3611 7.60835 17.313 7.91693 17.2231L11.8056 30.5556L15.8268 37.1358L11.8056 37.8472V43.0556L38.2479 43.0556V37.8472L34.175 37.1329L38.1945 30.5556L42.0831 17.2231C42.3917 17.313 42.718 17.3611 43.0556 17.3611C44.9732 17.3611 46.5278 15.8066 46.5278 13.8889C46.5278 11.9712 44.9732 10.4167 43.0556 10.4167C41.1379 10.4167 39.5833 11.9712 39.5833 13.8889C39.5833 14.894 40.0104 15.7993 40.6929 16.4334L33.2283 22.9167L31.6798 10.3903C33.3947 10.1786 34.7222 8.71657 34.7222 6.94445C34.7222 5.0268 33.1677 3.47223 31.25 3.47223C29.3324 3.47223 27.7778 5.0268 27.7778 6.94445C27.7778 8.42282 28.7017 9.68539 30.0036 10.1863L25 21.5278L19.9964 10.1863Z" fill="#F4F7FA"/>
</svg>
