<svg width="50" height="50" viewBox="0 0 50 50" fill="none" xmlns="http://www.w3.org/2000/svg">
<path fill-rule="evenodd" clip-rule="evenodd" d="M20.8347 2.69101C20.8816 1.1914 22.1108 0 23.6111 0H27.7778C29.2781 0 30.5073 1.1914 30.5542 2.69101L30.5786 3.47222H31.9444C33.4786 3.47222 34.7222 4.71588 34.7222 6.25V7.93476C37.7501 7.24956 41.0183 7.70725 43.7922 10.0188C49.5548 14.821 49.0246 24.8876 42.1855 30.3937C40.5351 31.7224 39.2386 32.824 38.3457 33.959C38.142 34.218 37.9675 34.4685 37.8206 34.7138L40.6358 35.0945C42.0135 35.2808 43.0413 36.457 43.0413 37.8472V43.0556C43.0413 44.5897 41.7976 45.8333 40.2635 45.8333H11.1254C9.59126 45.8333 8.3476 44.5897 8.3476 43.0556V37.8472C8.3476 36.457 9.37538 35.2808 10.7531 35.0945L13.5683 34.7138C13.4214 34.4685 13.2469 34.218 13.0432 33.959C12.1503 32.824 10.8538 31.7224 9.20335 30.3937C2.36432 24.8876 1.83409 14.821 7.59671 10.0188C10.3706 7.70725 13.6388 7.24956 16.6667 7.93476V6.25C16.6667 4.71588 17.9103 3.47222 19.4444 3.47222H20.8103L20.8347 2.69101Z" fill="#34364C"/>
<path fill-rule="evenodd" clip-rule="evenodd" d="M23.6111 2.77777H27.7778L27.8863 6.24999H31.9444V10.4167H28.0165L28.2073 15.134C28.2834 15.0443 28.3619 14.9564 28.4427 14.8705C32.2365 10.8382 37.8616 8.6925 42.0139 12.1528C46.1806 15.625 46.1806 23.6111 40.4436 28.23C37.1937 30.8464 34.2829 33.3687 34.4263 37.0577L40.2635 37.8472V43.0556H11.1254V37.8472L16.9626 37.0577C17.106 33.3687 14.1951 30.8464 10.9453 28.23C5.20834 23.6111 5.20834 15.625 9.375 12.1528C13.5273 8.6925 19.1524 10.8382 22.9462 14.8705C23.027 14.9564 23.1054 15.0443 23.1816 15.134L23.3724 10.4167H19.4444V6.24999H23.5026L23.6111 2.77777ZM19.6861 18.7313C22.2324 22.9022 22.5694 27.7778 22.5694 29.8981C21.2932 29.9004 16.4818 27.7837 13.9345 24.3088C12.1006 21.8071 11.6224 18.0955 13.1944 16.6545C14.7665 15.2136 18.0947 16.1246 19.6861 18.7313ZM31.7028 18.7313C29.1565 22.9022 28.8194 27.7778 28.8194 29.8981C30.0957 29.9004 34.9071 27.7837 37.4544 24.3088C39.2883 21.8071 39.7665 18.0955 38.1944 16.6545C36.6224 15.2136 33.2942 16.1246 31.7028 18.7313Z" fill="#F4F7FA"/>
</svg>
