<svg width="222" height="252" viewBox="0 0 222 252" fill="none" xmlns="http://www.w3.org/2000/svg">
<rect width="222" height="252" rx="10" fill="#323232" fill-opacity="0.96"/>
<path d="M61.68 91.2C59.3467 91.2 57.5667 90.6267 56.34 89.48C55.1133 88.3333 54.5 86.7133 54.5 84.62C54.5 82.46 55.1 80.8067 56.3 79.66C57.5 78.5 59.2867 77.92 61.66 77.92C62.46 77.92 63.1733 77.98 63.8 78.1C64.4267 78.22 65.0267 78.3867 65.6 78.6V81.88C64.4533 81.3733 63.2267 81.12 61.92 81.12C60.7067 81.12 59.8067 81.4 59.22 81.96C58.6333 82.5067 58.34 83.3933 58.34 84.62C58.34 85.82 58.6467 86.6867 59.26 87.22C59.8867 87.74 60.7867 88 61.96 88C62.6 88 63.22 87.94 63.82 87.82C64.4333 87.7 65.04 87.5133 65.64 87.26V90.56C65.0667 90.76 64.46 90.9133 63.82 91.02C63.1933 91.14 62.48 91.2 61.68 91.2ZM67.0484 91V78.12H70.8084V82.92H75.2484V78.12H79.0084V91H75.2484V86.2H70.8084V91H67.0484ZM80.818 91V78.12H90.578V81H84.578V83.1H89.838V86.02H84.578V88.12H90.578V91H80.818ZM98.555 91.2C96.2217 91.2 94.4417 90.6267 93.215 89.48C91.9883 88.3333 91.375 86.7133 91.375 84.62C91.375 82.46 91.975 80.8067 93.175 79.66C94.375 78.5 96.1617 77.92 98.535 77.92C99.335 77.92 100.048 77.98 100.675 78.1C101.302 78.22 101.902 78.3867 102.475 78.6V81.88C101.328 81.3733 100.102 81.12 98.795 81.12C97.5817 81.12 96.6817 81.4 96.095 81.96C95.5083 82.5067 95.215 83.3933 95.215 84.62C95.215 85.82 95.5217 86.6867 96.135 87.22C96.7617 87.74 97.6617 88 98.835 88C99.475 88 100.095 87.94 100.695 87.82C101.308 87.7 101.915 87.5133 102.515 87.26V90.56C101.942 90.76 101.335 90.9133 100.695 91.02C100.068 91.14 99.355 91.2 98.555 91.2ZM103.923 91V78.12H107.683V82.66L111.583 78.12H115.863L111.323 83.4L116.183 91H112.183L109.003 85.8L107.683 87.28V91H103.923ZM117.576 91V78.12H121.236L124.436 84.66L127.616 78.12H131.256V91H127.496V84.56L125.436 88.8H123.416L121.336 84.56V91H117.576ZM132.664 91L137.604 78.12H141.584L146.524 91H142.604L141.524 88.26H137.644L136.584 91H132.664ZM138.144 85.56H141.024L139.584 81.78L138.144 85.56ZM149.048 91V80.92H145.428V78.12H156.428V80.92H152.808V91H149.048ZM157.42 91V78.12H167.18V81H161.18V83.1H166.44V86.02H161.18V88.12H167.18V91H157.42Z" fill="white"/>
<path d="M73.991 103L72.341 95.916H74.079L75.014 100.184L75.982 96.917V95.916H77.434L78.655 100.195L79.634 95.916H81.372L79.733 103H78.094L76.906 98.908L75.63 103H73.991ZM84.2519 103V95.916H86.0229V98.721H88.7949V95.916H90.5659V103H88.7949V100.195H86.0229V103H84.2519ZM93.6655 103V95.916H95.4365V103H93.6655ZM100.174 103V97.28H98.0952V95.916H104.024V97.28H101.945V103H100.174ZM106.799 103V95.916H112.024V97.28H108.57V98.765H111.617V100.151H108.57V101.636H112.024V103H106.799ZM120.622 103L118.972 95.916H120.71L121.645 100.184L122.613 96.917V95.916H124.065L125.286 100.195L126.265 95.916H128.003L126.364 103H124.725L123.537 98.908L122.261 103H120.622ZM130.883 103V95.916H132.654V103H130.883ZM135.753 103V95.916H137.271L140.285 100.151V95.916H142.067V103H140.538L137.524 98.776V103H135.753ZM147.421 103.11C146.952 103.11 146.512 103.073 146.101 103C145.698 102.934 145.349 102.835 145.056 102.703V101.196C145.379 101.335 145.734 101.449 146.123 101.537C146.519 101.625 146.893 101.669 147.245 101.669C147.685 101.669 148.011 101.629 148.224 101.548C148.444 101.467 148.554 101.291 148.554 101.02C148.554 100.837 148.499 100.69 148.389 100.58C148.286 100.47 148.114 100.375 147.872 100.294C147.637 100.206 147.315 100.103 146.904 99.986C146.42 99.8393 146.035 99.678 145.749 99.502C145.463 99.3187 145.258 99.0987 145.133 98.842C145.008 98.5853 144.946 98.27 144.946 97.896C144.946 97.2213 145.188 96.7043 145.672 96.345C146.156 95.9857 146.871 95.806 147.817 95.806C148.228 95.806 148.627 95.839 149.016 95.905C149.405 95.9637 149.72 96.0333 149.962 96.114V97.632C149.647 97.5073 149.328 97.4157 149.005 97.357C148.69 97.2983 148.382 97.269 148.081 97.269C147.685 97.269 147.362 97.3057 147.113 97.379C146.871 97.4523 146.75 97.621 146.75 97.885C146.75 98.039 146.794 98.1637 146.882 98.259C146.97 98.347 147.12 98.4277 147.333 98.501C147.553 98.5743 147.85 98.6623 148.224 98.765C148.803 98.919 149.247 99.106 149.555 99.326C149.863 99.5387 150.076 99.788 150.193 100.074C150.31 100.353 150.369 100.668 150.369 101.02C150.369 101.643 150.127 102.149 149.643 102.538C149.159 102.919 148.418 103.11 147.421 103.11Z" fill="white"/>
<path fill-rule="evenodd" clip-rule="evenodd" d="M106.835 21.691C106.881 20.1914 108.111 19 109.611 19H113.778C115.278 19 116.507 20.1914 116.554 21.691L116.579 22.4722H117.944C119.479 22.4722 120.722 23.7159 120.722 25.25V26.9348C123.75 26.2496 127.018 26.7073 129.792 29.0188C135.555 33.821 135.025 43.8876 128.185 49.3937C126.535 50.7224 125.238 51.824 124.346 52.959C124.142 53.218 123.967 53.4685 123.821 53.7138L126.636 54.0945C128.013 54.2808 129.041 55.457 129.041 56.8472V62.0556C129.041 63.5897 127.798 64.8333 126.263 64.8333H97.1253C95.5912 64.8333 94.3475 63.5897 94.3475 62.0556V56.8472C94.3475 55.457 95.3753 54.2808 96.753 54.0945L99.5682 53.7138C99.4213 53.4685 99.2468 53.218 99.0431 52.959C98.1503 51.824 96.8537 50.7224 95.2033 49.3937C88.3643 43.8876 87.834 33.821 93.5967 29.0188C96.3705 26.7073 99.6387 26.2496 102.667 26.9348V25.25C102.667 23.7159 103.91 22.4722 105.444 22.4722H106.81L106.835 21.691Z" fill="black" fill-opacity="0.21"/>
<path fill-rule="evenodd" clip-rule="evenodd" d="M109.611 21.7778H113.778L113.886 25.2501H117.944V29.4167H114.016L114.207 34.1341C114.283 34.0444 114.362 33.9564 114.443 33.8705C118.237 29.8383 123.862 27.6926 128.014 31.1528C132.181 34.6251 132.181 42.6112 126.444 47.23C123.194 49.8465 120.283 52.3687 120.426 56.0578L126.264 56.8473V62.0556H97.1254V56.8473L102.963 56.0578C103.106 52.3687 100.195 49.8464 96.9453 47.23C91.2083 42.6112 91.2083 34.6251 95.375 31.1528C99.5273 27.6926 105.152 29.8383 108.946 33.8705C109.027 33.9564 109.105 34.0444 109.182 34.1341L109.372 29.4167H105.444V25.2501H109.503L109.611 21.7778ZM105.686 37.7314C108.232 41.9022 108.569 46.7778 108.569 48.8981C107.293 48.9004 102.482 46.7837 99.9345 43.3088C98.1006 40.8072 97.6224 37.0955 99.1944 35.6546C100.767 34.2136 104.095 35.1247 105.686 37.7314ZM117.703 37.7314C115.156 41.9022 114.819 46.7778 114.819 48.8981C116.096 48.9004 120.907 46.7837 123.454 43.3088C125.288 40.8072 125.767 37.0955 124.194 35.6546C122.622 34.2136 119.294 35.1247 117.703 37.7314Z" fill="#F4F7FA"/>
</svg>
