<svg width="222" height="252" viewBox="0 0 222 252" fill="none" xmlns="http://www.w3.org/2000/svg">
<rect width="222" height="252" rx="10" fill="#323232" fill-opacity="0.96"/>
<path d="M50.0758 91V78.12H56.7758C57.8291 78.12 58.6891 78.3133 59.3558 78.7C60.0358 79.0867 60.5424 79.6267 60.8758 80.32C61.2091 81 61.3758 81.7933 61.3758 82.7C61.3758 83.5667 61.1558 84.3333 60.7158 85C60.2891 85.6533 59.7158 86.1533 58.9958 86.5C59.1424 86.62 59.2691 86.7667 59.3758 86.94C59.4824 87.1 59.6024 87.3267 59.7358 87.62L61.2158 91H57.2958L55.9358 87.9C55.8291 87.66 55.6958 87.4933 55.5358 87.4C55.3891 87.2933 55.1758 87.24 54.8958 87.24H53.8358V91H50.0758ZM53.8358 84.36H55.8158C56.3624 84.36 56.7824 84.22 57.0758 83.94C57.3824 83.6467 57.5358 83.2333 57.5358 82.7C57.5358 81.5667 57.0024 81 55.9358 81H53.8358V84.36ZM62.7711 91V78.12H72.5311V81H66.5311V83.1H71.7911V86.02H66.5311V88.12H72.5311V91H62.7711ZM77.9481 91.2C77.0815 91.2 76.2615 91.1333 75.4881 91C74.7148 90.8533 74.0548 90.6533 73.5081 90.4V87.3C74.1081 87.58 74.7748 87.8067 75.5081 87.98C76.2415 88.1533 76.9281 88.24 77.5681 88.24C78.2348 88.24 78.7348 88.1867 79.0681 88.08C79.4148 87.96 79.5881 87.7 79.5881 87.3C79.5881 87.02 79.4881 86.8 79.2881 86.64C79.1015 86.48 78.8015 86.3333 78.3881 86.2C77.9881 86.0667 77.4615 85.9 76.8081 85.7C75.9415 85.42 75.2548 85.1133 74.7481 84.78C74.2415 84.4467 73.8748 84.04 73.6481 83.56C73.4348 83.08 73.3281 82.4933 73.3281 81.8C73.3281 80.5333 73.7748 79.5733 74.6681 78.92C75.5748 78.2533 76.9148 77.92 78.6881 77.92C79.3948 77.92 80.1215 77.98 80.8681 78.1C81.6281 78.22 82.2415 78.3533 82.7081 78.5V81.62C82.0815 81.3667 81.4815 81.1867 80.9081 81.08C80.3348 80.9733 79.7948 80.92 79.2881 80.92C78.7015 80.92 78.2015 80.9667 77.7881 81.06C77.3748 81.1533 77.1681 81.3933 77.1681 81.78C77.1681 82.1133 77.3415 82.36 77.6881 82.52C78.0481 82.6667 78.6815 82.86 79.5881 83.1C80.6415 83.38 81.4415 83.72 81.9881 84.12C82.5481 84.52 82.9281 84.9867 83.1281 85.52C83.3281 86.04 83.4281 86.6333 83.4281 87.3C83.4281 88.4733 82.9748 89.42 82.0681 90.14C81.1615 90.8467 79.7881 91.2 77.9481 91.2ZM84.8219 91V78.12H88.5819V91H84.8219ZM97.0283 91.2C94.7349 91.2 92.9883 90.64 91.7883 89.52C90.5883 88.3867 89.9883 86.7733 89.9883 84.68C89.9883 82.52 90.6083 80.8533 91.8483 79.68C93.0883 78.5067 94.9016 77.92 97.2883 77.92C98.0883 77.92 98.8083 77.9667 99.4483 78.06C100.102 78.1533 100.715 78.2933 101.288 78.48V81.7C100.702 81.4733 100.095 81.32 99.4683 81.24C98.8416 81.16 98.2016 81.12 97.5483 81.12C96.3083 81.12 95.3749 81.4 94.7483 81.96C94.1349 82.52 93.8283 83.4267 93.8283 84.68C93.8283 85.8533 94.0949 86.7 94.6283 87.22C95.1749 87.74 95.9749 88 97.0283 88C97.3749 88 97.7016 87.98 98.0083 87.94C98.3149 87.8867 98.6016 87.82 98.8683 87.74V85.86H96.3083V83.54H102.008V90.02C101.515 90.3267 100.855 90.6 100.028 90.84C99.2149 91.08 98.2149 91.2 97.0283 91.2ZM103.416 91V78.12H106.616L111.476 84.94V78.12H115.236V91H112.016L107.176 84.2V91H103.416ZM116.629 91L121.569 78.12H125.549L130.489 91H126.569L125.489 88.26H121.609L120.549 91H116.629ZM122.109 85.56H124.989L123.549 81.78L122.109 85.56ZM133.013 91V80.92H129.393V78.12H140.393V80.92H136.773V91H133.013ZM141.384 91V78.12H145.144V91H141.384ZM153.131 91.2C150.997 91.2 149.364 90.68 148.231 89.64C147.111 88.6 146.551 86.92 146.551 84.6C146.551 83 146.804 81.7133 147.311 80.74C147.817 79.7533 148.557 79.04 149.531 78.6C150.517 78.1467 151.717 77.92 153.131 77.92C154.544 77.92 155.737 78.1467 156.711 78.6C157.697 79.04 158.444 79.7533 158.951 80.74C159.457 81.7133 159.711 83 159.711 84.6C159.711 86.92 159.144 88.6 158.011 89.64C156.877 90.68 155.251 91.2 153.131 91.2ZM153.131 88C154.091 88 154.784 87.7333 155.211 87.2C155.651 86.6533 155.871 85.7867 155.871 84.6C155.871 83.3333 155.651 82.44 155.211 81.92C154.784 81.3867 154.091 81.12 153.131 81.12C152.171 81.12 151.471 81.3867 151.031 81.92C150.604 82.44 150.391 83.3333 150.391 84.6C150.391 85.7867 150.604 86.6533 151.031 87.2C151.471 87.7333 152.171 88 153.131 88ZM161.111 91V78.12H164.311L169.171 84.94V78.12H172.931V91H169.711L164.871 84.2V91H161.111Z" fill="white"/>
<path d="M71.561 103V95.916H75.301C76.0123 95.916 76.5477 96.0847 76.907 96.422C77.2737 96.7593 77.457 97.236 77.457 97.852C77.457 98.226 77.3837 98.5413 77.237 98.798C77.0977 99.0473 76.9107 99.2417 76.676 99.381C76.9987 99.4983 77.2517 99.6707 77.435 99.898C77.6183 100.125 77.71 100.466 77.71 100.921C77.71 101.596 77.512 102.113 77.116 102.472C76.72 102.824 76.1517 103 75.411 103H71.561ZM73.332 98.798H74.773C75.081 98.798 75.3047 98.7283 75.444 98.589C75.5833 98.4497 75.653 98.2553 75.653 98.006C75.653 97.7347 75.5833 97.533 75.444 97.401C75.3047 97.2617 75.0517 97.192 74.685 97.192H73.332V98.798ZM73.332 101.735H74.949C75.2717 101.735 75.51 101.669 75.664 101.537C75.8253 101.405 75.906 101.17 75.906 100.833C75.906 100.562 75.829 100.36 75.675 100.228C75.521 100.089 75.257 100.019 74.883 100.019H73.332V101.735ZM80.5879 103V95.916H82.3589V101.636H85.7029V103H80.5879ZM88.1487 103L90.8547 95.916H92.7687L95.4747 103H93.6267L92.9887 101.394H90.6237L89.9967 103H88.1487ZM90.8657 100.085H92.7467L91.8007 97.621L90.8657 100.085ZM101.336 103.11C100.097 103.11 99.1507 102.795 98.498 102.164C97.8527 101.526 97.53 100.642 97.53 99.513C97.53 98.3323 97.8454 97.4193 98.476 96.774C99.114 96.1287 100.064 95.806 101.325 95.806C101.758 95.806 102.143 95.839 102.48 95.905C102.825 95.971 103.155 96.059 103.47 96.169V97.72C102.832 97.456 102.161 97.324 101.457 97.324C100.724 97.324 100.185 97.5 99.84 97.852C99.5027 98.204 99.334 98.7577 99.334 99.513C99.334 100.232 99.5137 100.76 99.873 101.097C100.232 101.434 100.768 101.603 101.479 101.603C101.824 101.603 102.165 101.574 102.502 101.515C102.839 101.449 103.166 101.35 103.481 101.218V102.78C103.173 102.883 102.847 102.963 102.502 103.022C102.157 103.081 101.769 103.11 101.336 103.11ZM106.358 103V95.916H108.129V98.666L110.571 95.916H112.595L110.065 98.809L112.749 103H110.857L108.965 99.942L108.129 100.855V103H106.358ZM121.405 103L119.755 95.916H121.493L122.428 100.184L123.396 96.917V95.916H124.848L126.069 100.195L127.048 95.916H128.786L127.147 103H125.508L124.32 98.908L123.044 103H121.405ZM131.666 103V95.916H133.437V103H131.666ZM136.536 103V95.916H138.054L141.068 100.151V95.916H142.85V103H141.321L138.307 98.776V103H136.536ZM148.204 103.11C147.735 103.11 147.295 103.073 146.884 103C146.481 102.934 146.133 102.835 145.839 102.703V101.196C146.162 101.335 146.518 101.449 146.906 101.537C147.302 101.625 147.676 101.669 148.028 101.669C148.468 101.669 148.795 101.629 149.007 101.548C149.227 101.467 149.337 101.291 149.337 101.02C149.337 100.837 149.282 100.69 149.172 100.58C149.07 100.47 148.897 100.375 148.655 100.294C148.421 100.206 148.098 100.103 147.687 99.986C147.203 99.8393 146.818 99.678 146.532 99.502C146.246 99.3187 146.041 99.0987 145.916 98.842C145.792 98.5853 145.729 98.27 145.729 97.896C145.729 97.2213 145.971 96.7043 146.455 96.345C146.939 95.9857 147.654 95.806 148.6 95.806C149.011 95.806 149.411 95.839 149.799 95.905C150.188 95.9637 150.503 96.0333 150.745 96.114V97.632C150.43 97.5073 150.111 97.4157 149.788 97.357C149.473 97.2983 149.165 97.269 148.864 97.269C148.468 97.269 148.146 97.3057 147.896 97.379C147.654 97.4523 147.533 97.621 147.533 97.885C147.533 98.039 147.577 98.1637 147.665 98.259C147.753 98.347 147.904 98.4277 148.116 98.501C148.336 98.5743 148.633 98.6623 149.007 98.765C149.587 98.919 150.03 99.106 150.338 99.326C150.646 99.5387 150.859 99.788 150.976 100.074C151.094 100.353 151.152 100.668 151.152 101.02C151.152 101.643 150.91 102.149 150.426 102.538C149.942 102.919 149.202 103.11 148.204 103.11Z" fill="white"/>
<path fill-rule="evenodd" clip-rule="evenodd" d="M106.835 21.691C106.881 20.1914 108.111 19 109.611 19H113.778C115.278 19 116.507 20.1914 116.554 21.691L116.579 22.4722H117.944C119.479 22.4722 120.722 23.7159 120.722 25.25V26.9348C123.75 26.2496 127.018 26.7073 129.792 29.0188C135.555 33.821 135.025 43.8876 128.185 49.3937C126.535 50.7224 125.238 51.824 124.346 52.959C124.142 53.218 123.967 53.4685 123.821 53.7138L126.636 54.0945C128.013 54.2808 129.041 55.457 129.041 56.8472V62.0556C129.041 63.5897 127.798 64.8333 126.263 64.8333H97.1253C95.5912 64.8333 94.3475 63.5897 94.3475 62.0556V56.8472C94.3475 55.457 95.3753 54.2808 96.753 54.0945L99.5682 53.7138C99.4213 53.4685 99.2468 53.218 99.0431 52.959C98.1503 51.824 96.8537 50.7224 95.2033 49.3937C88.3643 43.8876 87.834 33.821 93.5967 29.0188C96.3705 26.7073 99.6387 26.2496 102.667 26.9348V25.25C102.667 23.7159 103.91 22.4722 105.444 22.4722H106.81L106.835 21.691Z" fill="#F4F7FA"/>
<path fill-rule="evenodd" clip-rule="evenodd" d="M109.611 21.7778H113.778L113.886 25.2501H117.944V29.4167H114.016L114.207 34.1341C114.283 34.0444 114.362 33.9564 114.443 33.8705C118.237 29.8383 123.862 27.6926 128.014 31.1528C132.181 34.6251 132.181 42.6112 126.444 47.23C123.194 49.8465 120.283 52.3687 120.426 56.0578L126.264 56.8473V62.0556H97.1254V56.8473L102.963 56.0578C103.106 52.3687 100.195 49.8464 96.9453 47.23C91.2083 42.6112 91.2083 34.6251 95.375 31.1528C99.5273 27.6926 105.152 29.8383 108.946 33.8705C109.027 33.9564 109.105 34.0444 109.182 34.1341L109.372 29.4167H105.444V25.2501H109.503L109.611 21.7778ZM105.686 37.7314C108.232 41.9022 108.569 46.7778 108.569 48.8981C107.293 48.9004 102.482 46.7837 99.9345 43.3088C98.1006 40.8072 97.6224 37.0955 99.1944 35.6546C100.767 34.2136 104.095 35.1247 105.686 37.7314ZM117.703 37.7314C115.156 41.9022 114.819 46.7778 114.819 48.8981C116.096 48.9004 120.907 46.7837 123.454 43.3088C125.288 40.8072 125.767 37.0955 124.194 35.6546C122.622 34.2136 119.294 35.1247 117.703 37.7314Z" fill="#2E2E2E"/>
</svg>
