<svg width="50" height="50" viewBox="0 0 50 50" fill="none" xmlns="http://www.w3.org/2000/svg">
<path d="M18.2736 11.7249C17.9945 10.9581 17.8419 10.1304 17.8419 9.26814C17.8419 5.30006 21.0586 2.08331 25.0267 2.08331C28.9948 2.08331 32.2115 5.30006 32.2115 9.26814C32.2115 10.4305 31.9338 11.5323 31.4413 12.5066C32.1499 12.5556 32.8385 12.8749 33.3405 13.4486C36.068 16.5657 38.4549 21.0102 38.4549 26.1618C38.4549 29.8449 37.1869 32.574 35.4735 34.5405L38.7277 35.1112C40.0564 35.3442 41.0256 36.4982 41.0256 37.8472V43.0555C41.0256 43.7923 40.733 44.4988 40.212 45.0197C39.6911 45.5407 38.9846 45.8333 38.2479 45.8333L11.8055 45.8333C10.2714 45.8333 9.02777 44.5897 9.02777 43.0555V37.8472C9.02777 36.4998 9.99481 35.3466 11.3217 35.1119L14.2571 34.5926C12.5204 32.6225 11.2313 29.878 11.2313 26.1618C11.2313 22.1426 12.7889 18.6423 14.6157 15.9597C15.764 14.2736 17.0639 12.8422 18.2736 11.7249Z" fill="#34364C"/>
<path d="M26.3889 25.7946H23.6111C23.6111 20.694 25.1581 15.602 28.5806 11.8747C29.1169 11.1447 29.4337 10.2434 29.4337 9.26814C29.4337 6.83418 27.4607 4.86108 25.0267 4.86108C22.5927 4.86108 20.6196 6.83418 20.6196 9.26814C20.6196 10.469 21.1 11.5576 21.8789 12.3525C19.126 14.3151 14.0091 19.5756 14.0091 26.1618C14.0091 32.8085 19.2203 35.4994 21.9541 36.0518L11.8055 37.8472V43.0555L38.2478 43.0555V37.8472L27.8587 36.0251C30.6234 35.4165 35.6771 32.7073 35.6771 26.1618C35.6771 21.876 33.6805 18.0555 31.25 15.2778C28.5806 17.3611 26.3889 22.2222 26.3889 25.7946Z" fill="#F4F7FA"/>
</svg>
