<svg width="222" height="252" viewBox="0 0 222 252" fill="none" xmlns="http://www.w3.org/2000/svg">
<rect width="222" height="252" rx="10" fill="#323232" fill-opacity="0.96"/>
<path d="M67.72 91V80.92H64.1V78.12H75.1V80.92H71.48V91H67.72ZM76.0914 91V78.12H79.8514V91H76.0914ZM81.6578 91V78.12H85.3178L88.5178 84.66L91.6978 78.12H95.3378V91H91.5778V84.56L89.5178 88.8H87.4978L85.4178 84.56V91H81.6578ZM97.1461 91V78.12H106.906V81H100.906V83.1H106.166V86.02H100.906V88.12H106.906V91H97.1461ZM112.205 91V78.12H115.965V88.12H121.765V91H112.205ZM128.756 91.2C126.622 91.2 124.989 90.68 123.856 89.64C122.736 88.6 122.176 86.92 122.176 84.6C122.176 83 122.429 81.7133 122.936 80.74C123.442 79.7533 124.182 79.04 125.156 78.6C126.142 78.1467 127.342 77.92 128.756 77.92C130.169 77.92 131.362 78.1467 132.336 78.6C133.322 79.04 134.069 79.7533 134.576 80.74C135.082 81.7133 135.336 83 135.336 84.6C135.336 86.92 134.769 88.6 133.636 89.64C132.502 90.68 130.876 91.2 128.756 91.2ZM128.756 88C129.716 88 130.409 87.7333 130.836 87.2C131.276 86.6533 131.496 85.7867 131.496 84.6C131.496 83.3333 131.276 82.44 130.836 81.92C130.409 81.3867 129.716 81.12 128.756 81.12C127.796 81.12 127.096 81.3867 126.656 81.92C126.229 82.44 126.016 83.3333 126.016 84.6C126.016 85.7867 126.229 86.6533 126.656 87.2C127.096 87.7333 127.796 88 128.756 88ZM140.956 91.2C140.089 91.2 139.269 91.1333 138.496 91C137.723 90.8533 137.063 90.6533 136.516 90.4V87.3C137.116 87.58 137.783 87.8067 138.516 87.98C139.249 88.1533 139.936 88.24 140.576 88.24C141.243 88.24 141.743 88.1867 142.076 88.08C142.423 87.96 142.596 87.7 142.596 87.3C142.596 87.02 142.496 86.8 142.296 86.64C142.109 86.48 141.809 86.3333 141.396 86.2C140.996 86.0667 140.469 85.9 139.816 85.7C138.949 85.42 138.263 85.1133 137.756 84.78C137.249 84.4467 136.883 84.04 136.656 83.56C136.443 83.08 136.336 82.4933 136.336 81.8C136.336 80.5333 136.783 79.5733 137.676 78.92C138.583 78.2533 139.923 77.92 141.696 77.92C142.403 77.92 143.129 77.98 143.876 78.1C144.636 78.22 145.249 78.3533 145.716 78.5V81.62C145.089 81.3667 144.489 81.1867 143.916 81.08C143.343 80.9733 142.803 80.92 142.296 80.92C141.709 80.92 141.209 80.9667 140.796 81.06C140.383 81.1533 140.176 81.3933 140.176 81.78C140.176 82.1133 140.349 82.36 140.696 82.52C141.056 82.6667 141.689 82.86 142.596 83.1C143.649 83.38 144.449 83.72 144.996 84.12C145.556 84.52 145.936 84.9867 146.136 85.52C146.336 86.04 146.436 86.6333 146.436 87.3C146.436 88.4733 145.983 89.42 145.076 90.14C144.169 90.8467 142.796 91.2 140.956 91.2ZM151.854 91.2C150.988 91.2 150.168 91.1333 149.394 91C148.621 90.8533 147.961 90.6533 147.414 90.4V87.3C148.014 87.58 148.681 87.8067 149.414 87.98C150.148 88.1533 150.834 88.24 151.474 88.24C152.141 88.24 152.641 88.1867 152.974 88.08C153.321 87.96 153.494 87.7 153.494 87.3C153.494 87.02 153.394 86.8 153.194 86.64C153.008 86.48 152.708 86.3333 152.294 86.2C151.894 86.0667 151.368 85.9 150.714 85.7C149.848 85.42 149.161 85.1133 148.654 84.78C148.148 84.4467 147.781 84.04 147.554 83.56C147.341 83.08 147.234 82.4933 147.234 81.8C147.234 80.5333 147.681 79.5733 148.574 78.92C149.481 78.2533 150.821 77.92 152.594 77.92C153.301 77.92 154.028 77.98 154.774 78.1C155.534 78.22 156.148 78.3533 156.614 78.5V81.62C155.988 81.3667 155.388 81.1867 154.814 81.08C154.241 80.9733 153.701 80.92 153.194 80.92C152.608 80.92 152.108 80.9667 151.694 81.06C151.281 81.1533 151.074 81.3933 151.074 81.78C151.074 82.1133 151.248 82.36 151.594 82.52C151.954 82.6667 152.588 82.86 153.494 83.1C154.548 83.38 155.348 83.72 155.894 84.12C156.454 84.52 156.834 84.9867 157.034 85.52C157.234 86.04 157.334 86.6333 157.334 87.3C157.334 88.4733 156.881 89.42 155.974 90.14C155.068 90.8467 153.694 91.2 151.854 91.2Z" fill="white"/>
<path d="M73.991 103L72.341 95.916H74.079L75.014 100.184L75.982 96.917V95.916H77.434L78.655 100.195L79.634 95.916H81.372L79.733 103H78.094L76.906 98.908L75.63 103H73.991ZM84.2519 103V95.916H86.0229V98.721H88.7949V95.916H90.5659V103H88.7949V100.195H86.0229V103H84.2519ZM93.6655 103V95.916H95.4365V103H93.6655ZM100.174 103V97.28H98.0952V95.916H104.024V97.28H101.945V103H100.174ZM106.799 103V95.916H112.024V97.28H108.57V98.765H111.617V100.151H108.57V101.636H112.024V103H106.799ZM120.622 103L118.972 95.916H120.71L121.645 100.184L122.613 96.917V95.916H124.065L125.286 100.195L126.265 95.916H128.003L126.364 103H124.725L123.537 98.908L122.261 103H120.622ZM130.883 103V95.916H132.654V103H130.883ZM135.753 103V95.916H137.271L140.285 100.151V95.916H142.067V103H140.538L137.524 98.776V103H135.753ZM147.421 103.11C146.952 103.11 146.512 103.073 146.101 103C145.698 102.934 145.349 102.835 145.056 102.703V101.196C145.379 101.335 145.734 101.449 146.123 101.537C146.519 101.625 146.893 101.669 147.245 101.669C147.685 101.669 148.011 101.629 148.224 101.548C148.444 101.467 148.554 101.291 148.554 101.02C148.554 100.837 148.499 100.69 148.389 100.58C148.286 100.47 148.114 100.375 147.872 100.294C147.637 100.206 147.315 100.103 146.904 99.986C146.42 99.8393 146.035 99.678 145.749 99.502C145.463 99.3187 145.258 99.0987 145.133 98.842C145.008 98.5853 144.946 98.27 144.946 97.896C144.946 97.2213 145.188 96.7043 145.672 96.345C146.156 95.9857 146.871 95.806 147.817 95.806C148.228 95.806 148.627 95.839 149.016 95.905C149.405 95.9637 149.72 96.0333 149.962 96.114V97.632C149.647 97.5073 149.328 97.4157 149.005 97.357C148.69 97.2983 148.382 97.269 148.081 97.269C147.685 97.269 147.362 97.3057 147.113 97.379C146.871 97.4523 146.75 97.621 146.75 97.885C146.75 98.039 146.794 98.1637 146.882 98.259C146.97 98.347 147.12 98.4277 147.333 98.501C147.553 98.5743 147.85 98.6623 148.224 98.765C148.803 98.919 149.247 99.106 149.555 99.326C149.863 99.5387 150.076 99.788 150.193 100.074C150.31 100.353 150.369 100.668 150.369 101.02C150.369 101.643 150.127 102.149 149.643 102.538C149.159 102.919 148.418 103.11 147.421 103.11Z" fill="white"/>
<path fill-rule="evenodd" clip-rule="evenodd" d="M106.835 21.691C106.881 20.1914 108.111 19 109.611 19H113.778C115.278 19 116.507 20.1914 116.554 21.691L116.579 22.4722H117.944C119.479 22.4722 120.722 23.7159 120.722 25.25V26.9348C123.75 26.2496 127.018 26.7073 129.792 29.0188C135.555 33.821 135.025 43.8876 128.185 49.3937C126.535 50.7224 125.238 51.824 124.346 52.959C124.142 53.218 123.967 53.4685 123.821 53.7138L126.636 54.0945C128.013 54.2808 129.041 55.457 129.041 56.8472V62.0556C129.041 63.5897 127.798 64.8333 126.263 64.8333H97.1253C95.5912 64.8333 94.3475 63.5897 94.3475 62.0556V56.8472C94.3475 55.457 95.3753 54.2808 96.753 54.0945L99.5682 53.7138C99.4213 53.4685 99.2468 53.218 99.0431 52.959C98.1503 51.824 96.8537 50.7224 95.2033 49.3937C88.3643 43.8876 87.834 33.821 93.5967 29.0188C96.3705 26.7073 99.6387 26.2496 102.667 26.9348V25.25C102.667 23.7159 103.91 22.4722 105.444 22.4722H106.81L106.835 21.691Z" fill="black" fill-opacity="0.21"/>
<path fill-rule="evenodd" clip-rule="evenodd" d="M109.611 21.7778H113.778L113.886 25.2501H117.944V29.4167H114.016L114.207 34.1341C114.283 34.0444 114.362 33.9564 114.443 33.8705C118.237 29.8383 123.862 27.6926 128.014 31.1528C132.181 34.6251 132.181 42.6112 126.444 47.23C123.194 49.8465 120.283 52.3687 120.426 56.0578L126.264 56.8473V62.0556H97.1254V56.8473L102.963 56.0578C103.106 52.3687 100.195 49.8464 96.9453 47.23C91.2083 42.6112 91.2083 34.6251 95.375 31.1528C99.5273 27.6926 105.152 29.8383 108.946 33.8705C109.027 33.9564 109.105 34.0444 109.182 34.1341L109.372 29.4167H105.444V25.2501H109.503L109.611 21.7778ZM105.686 37.7314C108.232 41.9022 108.569 46.7778 108.569 48.8981C107.293 48.9004 102.482 46.7837 99.9345 43.3088C98.1006 40.8072 97.6224 37.0955 99.1944 35.6546C100.767 34.2136 104.095 35.1247 105.686 37.7314ZM117.703 37.7314C115.156 41.9022 114.819 46.7778 114.819 48.8981C116.096 48.9004 120.907 46.7837 123.454 43.3088C125.288 40.8072 125.767 37.0955 124.194 35.6546C122.622 34.2136 119.294 35.1247 117.703 37.7314Z" fill="#F4F7FA"/>
</svg>
